<?xml version="1.0" encoding="UTF-8"?>
<svg width="40px" height="40px" viewBox="0 0 40 40" version="1.1" xmlns="http://www.w3.org/2000/svg" xmlns:xlink="http://www.w3.org/1999/xlink">
    <!-- Generator: Sketch 43 (38999) - http://www.bohemiancoding.com/sketch -->
    <title>15yan</title>
    <desc>Created with Sketch.</desc>
    <defs></defs>
    <g id="shengbixing.com" stroke="none" stroke-width="1" fill="none" fill-rule="evenodd">
        <g transform="translate(-198.000000, -1236.000000)" id="social-media">
            <g transform="translate(128.000000, 1140.000000)">
                <g id="social_icons" transform="translate(10.000000, 36.000000)">
                    <g id="15yan" transform="translate(60.000000, 60.000000)">
                        <rect id="bg" fill-opacity="0.01" fill="#FFFFFF" x="0" y="0" width="40" height="40"></rect>
                        <path d="M0,32 L0,23.2 L24,23.2 L24,32 L0,32 L0,32 Z M21.6776,25.6 L2.3224,25.6 L2.3224,29.6 L21.6776,29.6 L21.6776,25.6 L21.6776,25.6 Z M0,19.2 L24,19.2 L24,21.6 L0,21.6 L0,19.2 L0,19.2 Z M0,15.2 L24,15.2 L24,17.6 L0,17.6 L0,15.2 L0,15.2 Z M0,11.2 L9.2904,11.2 L11.6128,8 L13.9352,11.2 L24,11.2 L24,13.6 L0,13.6 L0,11.2 L0,11.2 Z" fill="#000000"></path>
                    </g>
                </g>
            </g>
        </g>
    </g>
</svg>