<?xml version="1.0" encoding="UTF-8"?>
<svg width="40px" height="40px" viewBox="0 0 40 40" version="1.1" xmlns="http://www.w3.org/2000/svg" xmlns:xlink="http://www.w3.org/1999/xlink">
    <!-- Generator: Sketch 43 (38999) - http://www.bohemiancoding.com/sketch -->
    <title>500px</title>
    <desc>Created with Sketch.</desc>
    <defs></defs>
    <g id="shengbixing.com" stroke="none" stroke-width="1" fill="none" fill-rule="evenodd">
        <g transform="translate(-378.000000, -1176.000000)" id="social-media">
            <g transform="translate(128.000000, 1140.000000)">
                <g id="social_icons" transform="translate(10.000000, 36.000000)">
                    <g id="500px" transform="translate(240.000000, 0.000000)">
                        <rect id="bg" fill-opacity="0.01" fill="#FFFFFF" x="0" y="0" width="40" height="40"></rect>
                        <path d="M3.30999828,24.5064103 C3.30999828,24.5064103 3.46725334,24.9070513 3.54588086,25.0673077 C3.93901851,26.0288462 4.48941121,26.9102564 5.27568649,27.6314103 C5.98333425,28.3525641 6.84823706,28.9935897 7.7917674,29.3942308 C8.81392527,29.7948718 9.83608314,30.0352564 10.9368685,30.0352564 C12.0376539,30.0352564 13.0598118,29.7948718 14.0819697,29.3942308 C15.0255,28.9935897 15.8904028,28.4326923 16.5980506,27.6314103 C17.3056983,26.9102564 17.9347186,26.0288462 18.3278562,25.0673077 C18.7209939,24.025641 18.9568764,22.9839744 18.9568764,21.8621795 C18.9568764,20.7403846 18.7209939,19.6987179 18.3278562,18.6570513 C17.9347186,17.6955128 17.3843259,16.8141026 16.5980506,16.0929487 C15.8117753,15.3717949 15.0255,14.7307692 14.0819697,14.3301282 C13.0598118,13.9294872 12.0376539,13.6891026 10.9368685,13.6891026 C9.83608314,13.6891026 8.73529774,13.9294872 7.7917674,14.3301282 C7.00549212,14.650641 5.66882413,15.5320513 4.96117638,16.3333333 L4.96117638,16.3333333 L4.96117638,9.6025641 L15.9690304,9.6025641 C16.362168,9.6025641 16.362168,9.04166667 16.362168,8.80128205 C16.362168,8.64102564 16.362168,8.08012821 15.9690304,8 L3.93901851,8 C3.62450839,8 3.38862581,8.24038462 3.38862581,8.56089744 L3.38862581,18.0160256 C3.38862581,18.3365385 3.78176345,18.5769231 4.09627356,18.5769231 C4.80392132,18.7371795 4.96117638,18.4967949 5.11843143,18.2564103 L5.11843143,18.2564103 C5.35431402,17.8557692 6.1405893,17.0544872 6.1405893,17.0544872 C7.39862976,15.7724359 9.04980786,15.1314103 10.7796135,15.1314103 C12.5094191,15.1314103 14.1605972,15.8525641 15.4186377,17.0544872 C16.6766781,18.3365385 17.3056983,19.9391026 17.3056983,21.7820513 C17.3056983,23.5448718 16.5980506,25.2275641 15.4186377,26.5096154 C14.2392247,27.7115385 12.5094191,28.4326923 10.7796135,28.4326923 C9.60020056,28.4326923 8.49941516,28.1121795 7.47725729,27.4711538 L7.47725729,21.7820513 C7.47725729,20.9807692 7.7917674,20.1794872 8.3421601,19.5384615 C8.97118033,18.8173077 9.83608314,18.4166667 10.7796135,18.4166667 C11.7231438,18.4166667 12.5094191,18.7371795 13.1384393,19.3782051 C13.7674596,20.0192308 14.0819697,20.8205128 14.0819697,21.7820513 C14.0819697,23.7051282 12.5880466,25.2275641 10.700986,25.2275641 C10.3078483,25.2275641 9.67882808,25.0673077 9.67882808,25.0673077 C9.36431797,24.9871795 9.20706291,25.5480769 9.20706291,25.7083333 C8.97118033,26.4294872 9.28569044,26.5096154 9.36431797,26.5096154 C9.9933382,26.6698718 10.3864758,26.75 10.858241,26.75 C13.531577,26.75 15.6545202,24.5064103 15.6545202,21.8621795 C15.6545202,19.1378205 13.4529494,16.974359 10.858241,16.974359 C9.52157303,16.974359 8.3421601,17.4551282 7.39862976,18.4166667 C6.53372695,19.2980769 5.98333425,20.5 5.98333425,21.6217949 L5.98333425,21.6217949 L5.98333425,26.349359 L5.98333425,26.349359 C5.51156908,25.7884615 4.96117638,24.9070513 4.64666626,24.025641 C4.48941121,23.7051282 4.25352862,23.7051282 3.86039098,23.8653846 C3.70313592,23.9455128 3.23137075,24.1057692 3.30999828,24.5064103 L3.30999828,24.5064103 L3.30999828,24.5064103 Z M8.97118033,23.1442308 C8.97118033,23.3044872 9.12843538,23.4647436 9.20706291,23.5448718 L9.20706291,23.5448718 C9.36431797,23.7051282 9.52157303,23.7852564 9.60020056,23.7852564 C9.67882808,23.7852564 9.75745561,23.7051282 9.83608314,23.7051282 C9.91471067,23.625 10.6223584,22.8237179 10.700986,22.8237179 L11.5658888,23.7051282 C11.6445163,23.7852564 11.7231438,23.8653846 11.8017714,23.8653846 C11.9590264,23.8653846 12.1162815,23.7852564 12.2735365,23.625 C12.6666742,23.224359 12.4307916,23.0641026 12.3521641,22.9839744 L11.5658888,22.0224359 L12.4307916,21.1410256 C12.5880466,20.900641 12.4307916,20.6602564 12.2735365,20.5 C12.0376539,20.2596154 11.8017714,20.1794872 11.6445163,20.3397436 L10.7796135,21.2211538 L9.91471067,20.3397436 C9.83608314,20.2596154 9.83608314,20.2596154 9.75745561,20.2596154 C9.60020056,20.2596154 9.52157303,20.3397436 9.36431797,20.5 C9.04980786,20.7403846 9.04980786,20.9807692 9.20706291,21.1410256 L10.0719657,22.0224359 L9.20706291,22.9038462 C9.04980786,22.9839744 8.97118033,23.0641026 8.97118033,23.1442308 L8.97118033,23.1442308 Z M10.9368685,10.8044872 C9.52157303,10.8044872 7.94902246,11.125 6.84823706,11.6057692 C6.690982,11.6858974 6.690982,11.7660256 6.61235447,11.9262821 C6.61235447,12.0865385 6.61235447,12.2467949 6.690982,12.4871795 C6.76960953,12.6474359 6.92686459,13.1282051 7.32000223,12.9679487 C8.49941516,12.4871795 9.75745561,12.2467949 10.858241,12.2467949 C12.194909,12.2467949 13.4529494,12.4871795 14.6323624,13.0480769 C15.5758927,13.4487179 16.4407955,14.0096154 17.4629534,14.8910256 C17.5415809,14.9711538 17.6202085,14.9711538 17.698836,14.9711538 C17.856091,14.9711538 18.0919736,14.8108974 18.2492287,14.5705128 C18.4851113,14.25 18.7209939,14.0096154 18.4064837,13.7692308 C17.4629534,12.8878205 16.4407955,12.1666667 15.1827551,11.6858974 C13.9247146,11.125 12.4307916,10.8044872 10.9368685,10.8044872 L10.9368685,10.8044872 Z M18.6423663,28.8333333 L18.6423663,28.8333333 C18.4851113,28.6730769 18.3278562,28.5929487 18.1706012,28.5128205 C18.0133461,28.5128205 17.9347186,28.5128205 17.856091,28.5929487 L17.7774635,28.6730769 C16.9125607,29.5544872 15.8904028,30.275641 14.7109899,30.7564103 C13.531577,31.2371795 12.2735365,31.5576923 10.9368685,31.5576923 C9.60020056,31.5576923 8.3421601,31.3173077 7.16274717,30.7564103 C5.98333425,30.275641 4.96117638,29.5544872 4.09627356,28.6730769 C3.15274322,27.7115385 2.44509547,26.6698718 2.05195782,25.5480769 C1.58019265,24.4262821 1.50156512,23.625 1.4229376,23.3044872 L1.4229376,23.224359 C1.34431007,22.9038462 1.10842748,22.9038462 0.636662311,22.9839744 C0.479407255,22.9839744 -0.0709854446,23.0641026 0.00764208385,23.4647436 L0.00764208385,23.4647436 C0.164897141,24.3461538 0.400779726,25.2275641 0.71528984,26.1089744 C1.26568254,27.4711538 2.05195782,28.6730769 3.07411569,29.7147436 C4.09627356,30.7564103 5.27568649,31.5576923 6.61235447,32.1185897 C7.94902246,32.6794872 9.4429455,33 10.9368685,33 C12.4307916,33 13.8460871,32.6794872 15.2613826,32.1185897 C16.5980506,31.5576923 17.7774635,30.7564103 18.7996214,29.7147436 L18.8782489,29.6346154 C19.035504,29.474359 19.1141315,29.2339744 18.6423663,28.8333333 L18.6423663,28.8333333 Z" fill="#000000"></path>
                    </g>
                </g>
            </g>
        </g>
    </g>
</svg>