<?xml version="1.0" encoding="UTF-8"?>
<svg width="40px" height="40px" viewBox="0 0 40 40" version="1.1" xmlns="http://www.w3.org/2000/svg" xmlns:xlink="http://www.w3.org/1999/xlink">
    <!-- Generator: Sketch 43 (38999) - http://www.bohemiancoding.com/sketch -->
    <title>behance</title>
    <desc>Created with Sketch.</desc>
    <defs></defs>
    <g id="shengbixing.com" stroke="none" stroke-width="1" fill="none" fill-rule="evenodd">
        <g transform="translate(-618.000000, -1176.000000)" id="social-media">
            <g transform="translate(128.000000, 1140.000000)">
                <g id="social_icons" transform="translate(10.000000, 36.000000)">
                    <g id="behance" transform="translate(480.000000, 0.000000)">
                        <rect id="bg" fill-opacity="0.01" fill="#FFFFFF" x="0" y="0" width="40" height="40"></rect>
                        <path d="M9.68,19.7741935 C10.32,19.4516129 10.88,19.0483871 11.2,18.5645161 C11.52,18.0806452 11.68,17.4354839 11.68,16.7096774 C11.68,15.983871 11.6,15.4193548 11.36,14.9354839 C11.12,14.4516129 10.8,14.0483871 10.4,13.8064516 C10,13.483871 9.52,13.3225806 8.88,13.1612903 C8.32,13 7.68,13 6.96,13 L0,13 L0,27.9193548 L7.12,27.9193548 C7.76,27.9193548 8.4,27.8387097 9.04,27.6774194 C9.68,27.516129 10.24,27.2741935 10.72,26.8709677 C11.2,26.5483871 11.6,26.0645161 11.92,25.5 C12.24,24.9354839 12.32,24.2903226 12.32,23.5645161 C12.32,22.5967742 12.08,21.8709677 11.68,21.1451613 C11.28,20.5 10.56,20.016129 9.68,19.7741935 L9.68,19.7741935 Z M3.28,15.5 L6.32,15.5 C6.64,15.5 6.88,15.5 7.12,15.5806452 C7.36,15.6612903 7.6,15.7419355 7.84,15.8225806 C8.08,15.983871 8.24,16.1451613 8.32,16.3064516 C8.48,16.5483871 8.48,16.7903226 8.48,17.1935484 C8.48,17.8387097 8.32,18.2419355 7.92,18.5645161 C7.52,18.8064516 7.04,18.9677419 6.48,18.9677419 L3.2,18.9677419 L3.2,15.5 L3.28,15.5 Z M8.96,24.3709677 C8.8,24.6129032 8.64,24.8548387 8.4,24.9354839 C8.16,25.0967742 7.92,25.1774194 7.6,25.2580645 C7.28,25.3387097 7.04,25.3387097 6.72,25.3387097 L3.28,25.3387097 L3.28,21.2258065 L6.8,21.2258065 C7.52,21.2258065 8.08,21.3870968 8.48,21.7096774 C8.88,22.0322581 9.12,22.5967742 9.12,23.3225806 C9.12,23.8064516 9.04,24.1290323 8.96,24.3709677 L8.96,24.3709677 Z M23.76,20.8225806 C23.6,20.0967742 23.28,19.3709677 22.8,18.8064516 C22.4,18.1612903 21.84,17.6774194 21.2,17.3548387 C20.56,17.0322581 19.76,16.7903226 18.8,16.7903226 C18,16.7903226 17.28,16.9516129 16.56,17.1935484 C15.92,17.516129 15.28,17.9193548 14.8,18.4032258 C14.32,18.8870968 13.92,19.5322581 13.68,20.1774194 C13.44,20.9032258 13.28,21.6290323 13.28,22.4354839 C13.28,23.2419355 13.44,24.0483871 13.68,24.6935484 C13.92,25.4193548 14.32,25.983871 14.8,26.4677419 C15.28,26.9516129 15.84,27.3548387 16.56,27.5967742 C17.28,27.8387097 18,28 18.88,28 C20.08,28 21.12,27.7580645 22,27.1935484 C22.88,26.6290323 23.52,25.7419355 23.92,24.4516129 L21.36,24.4516129 C21.28,24.7741935 21.04,25.0967742 20.56,25.4193548 C20.16,25.7419355 19.6,25.9032258 19.04,25.9032258 C18.24,25.9032258 17.6,25.6612903 17.12,25.2580645 C16.64,24.8548387 16.4,24.0483871 16.4,23.1612903 L24,23.1612903 C24,22.3548387 24,21.5483871 23.76,20.8225806 L23.76,20.8225806 Z M16.24,21.3064516 C16.24,21.0645161 16.32,20.8225806 16.4,20.5806452 C16.48,20.3387097 16.64,20.0967742 16.8,19.8548387 C16.96,19.6129032 17.2,19.4516129 17.52,19.2903226 C17.84,19.1290323 18.24,19.0483871 18.72,19.0483871 C19.44,19.0483871 20,19.2903226 20.4,19.6129032 C20.72,20.016129 21.04,20.5806452 21.04,21.3064516 L16.24,21.3064516 L16.24,21.3064516 Z M21.68,13.9677419 L15.68,13.9677419 L15.68,15.4193548 L21.68,15.4193548 L21.68,13.9677419 L21.68,13.9677419 Z" fill="#000000"></path>
                    </g>
                </g>
            </g>
        </g>
    </g>
</svg>