<?xml version="1.0" encoding="UTF-8"?>
<svg width="40px" height="40px" viewBox="0 0 40 40" version="1.1" xmlns="http://www.w3.org/2000/svg" xmlns:xlink="http://www.w3.org/1999/xlink">
    <!-- Generator: Sketch 43 (38999) - http://www.bohemiancoding.com/sketch -->
    <title>codepen</title>
    <desc>Created with Sketch.</desc>
    <defs></defs>
    <g id="shengbixing.com" stroke="none" stroke-width="1" fill="none" fill-rule="evenodd">
        <g transform="translate(-798.000000, -1236.000000)" id="social-media">
            <g transform="translate(128.000000, 1140.000000)">
                <g id="social_icons" transform="translate(10.000000, 36.000000)">
                    <g id="codepen" transform="translate(660.000000, 60.000000)">
                        <rect id="bg" fill-opacity="0.01" fill="#FFFFFF" x="0" y="0" width="40" height="40"></rect>
                        <path d="M3.00625,24.3461538 L11.8625,29.9976452 L11.8625,24.8956044 L6.9875,21.755887 L3.00625,24.3461538 L3.00625,24.3461538 Z M2.19375,18.7731554 L2.19375,22.2268446 L4.95625,20.5 L2.19375,18.7731554 L2.19375,18.7731554 Z M11.8625,16.1043956 L11.8625,11.0023548 L3.00625,16.6538462 L6.9875,19.1656201 L11.8625,16.1043956 L11.8625,16.1043956 Z M22.99375,16.6538462 L14.1375,11.0023548 L14.1375,16.1043956 L19.0125,19.244113 L22.99375,16.6538462 L22.99375,16.6538462 Z M13,17.9882261 L9.01875,20.5 L13,23.0117739 L16.98125,20.5 L13,17.9882261 L13,17.9882261 Z M26,24.4246468 C26,24.8171115 25.8375,25.1310832 25.5125,25.2880691 L13.65,32.8233909 C13.24375,33.0588697 12.8375,33.0588697 12.43125,32.8233909 L0.56875,25.2880691 C0.1625,25.1310832 0,24.7386185 0,24.4246468 L0,16.5753532 C0,16.1828885 0.1625,15.8689168 0.4875,15.7119309 L12.35,8.17660911 C12.75625,7.9411303 13.1625,7.9411303 13.56875,8.17660911 L25.43125,15.7119309 C25.75625,15.9474097 25.91875,16.2613815 25.91875,16.5753532 L25.91875,24.4246468 L26,24.4246468 Z M14.1375,24.8956044 L14.1375,29.9976452 L22.99375,24.3461538 L19.0125,21.8343799 L14.1375,24.8956044 L14.1375,24.8956044 Z M23.80625,22.2268446 L23.80625,18.7731554 L21.04375,20.5 L23.80625,22.2268446 L23.80625,22.2268446 Z" fill="#000000"></path>
                    </g>
                </g>
            </g>
        </g>
    </g>
</svg>