<?xml version="1.0" encoding="UTF-8"?>
<svg width="40px" height="40px" viewBox="0 0 40 40" version="1.1" xmlns="http://www.w3.org/2000/svg" xmlns:xlink="http://www.w3.org/1999/xlink">
    <!-- Generator: Sketch 43 (38999) - http://www.bohemiancoding.com/sketch -->
    <title>dribbble</title>
    <desc>Created with Sketch.</desc>
    <defs></defs>
    <g id="shengbixing.com" stroke="none" stroke-width="1" fill="none" fill-rule="evenodd">
        <g transform="translate(-558.000000, -1176.000000)" id="social-media">
            <g transform="translate(128.000000, 1140.000000)">
                <g id="social_icons" transform="translate(10.000000, 36.000000)">
                    <g id="dribbble" transform="translate(420.000000, 0.000000)">
                        <rect id="bg" fill-opacity="0.01" fill="#FFFFFF" x="0" y="0" width="40" height="40"></rect>
                        <path d="M13,33 C5.85,33 0,27.15 0,20 C0,12.85 5.85,7 13,7 C20.15,7 26,12.85 26,20 C26,27.15 20.15,33 13,33 L13,33 Z M23.96875,21.7875 C23.5625,21.625 20.55625,20.73125 17.0625,21.3 C18.525,25.28125 19.09375,28.53125 19.25625,29.18125 C21.69375,27.55625 23.48125,24.875 23.96875,21.7875 L23.96875,21.7875 Z M17.30625,30.2375 C17.14375,29.2625 16.49375,25.85 14.95,21.7875 L14.86875,21.7875 C8.6125,23.98125 6.3375,28.2875 6.175,28.69375 C8.04375,30.15625 10.4,31.05 13,31.05 C14.54375,31.13125 16.00625,30.80625 17.30625,30.2375 L17.30625,30.2375 Z M4.7125,27.475 C4.95625,27.06875 8.04375,22.03125 13.73125,20.1625 C13.89375,20.08125 14.05625,20.08125 14.1375,20 C13.89375,19.35 13.56875,18.7 13.24375,18.13125 C7.71875,19.75625 2.35625,19.75625 1.86875,19.675 L1.86875,20 C1.86875,22.84375 3.00625,25.44375 4.7125,27.475 L4.7125,27.475 Z M2.1125,17.725 C2.6,17.725 7.15,17.725 12.35,16.34375 C10.48125,13.09375 8.53125,10.33125 8.20625,9.925 C5.2,11.46875 2.84375,14.3125 2.1125,17.725 L2.1125,17.725 Z M10.4,9.19375 C10.725,9.6 12.75625,12.3625 14.54375,15.69375 C18.525,14.23125 20.15,11.95625 20.39375,11.7125 C18.44375,10.00625 15.84375,8.95 13,8.95 C12.10625,8.95 11.2125,9.03125 10.4,9.19375 L10.4,9.19375 Z M21.6125,13.0125 C21.36875,13.3375 19.5,15.69375 15.4375,17.4 C15.68125,17.96875 15.925,18.45625 16.16875,19.025 C16.25,19.1875 16.33125,19.43125 16.4125,19.59375 C20.06875,19.10625 23.80625,19.8375 24.13125,19.91875 C24.05,17.31875 23.15625,14.88125 21.6125,13.0125 L21.6125,13.0125 Z" fill="#000000"></path>
                    </g>
                </g>
            </g>
        </g>
    </g>
</svg>