<?xml version="1.0" encoding="UTF-8"?>
<svg width="40px" height="40px" viewBox="0 0 40 40" version="1.1" xmlns="http://www.w3.org/2000/svg" xmlns:xlink="http://www.w3.org/1999/xlink">
    <!-- Generator: Sketch 43 (38999) - http://www.bohemiancoding.com/sketch -->
    <title>github</title>
    <desc>Created with Sketch.</desc>
    <defs></defs>
    <g id="shengbixing.com" stroke="none" stroke-width="1" fill="none" fill-rule="evenodd">
        <g transform="translate(-558.000000, -1236.000000)" id="social-media">
            <g transform="translate(128.000000, 1140.000000)">
                <g id="social_icons" transform="translate(10.000000, 36.000000)">
                    <g id="github" transform="translate(420.000000, 60.000000)">
                        <rect id="bg" fill-opacity="0.01" fill="#FFFFFF" x="0" y="0" width="40" height="40"></rect>
                        <path d="M13,8 C5.85,8 0,13.7484226 0,20.7742725 C0,26.4428559 3.7375,31.233208 8.85625,32.9098313 C9.50625,32.9896705 9.75,32.6703137 9.75,32.2711177 L9.75,30.1154592 C6.09375,30.9138512 5.3625,28.4388359 5.3625,28.4388359 C4.79375,27.0017303 3.9,26.6025343 3.9,26.6025343 C2.68125,25.8041422 3.98125,25.8041422 3.98125,25.8041422 C5.28125,25.8839814 6.0125,27.0815695 6.0125,27.0815695 C7.15,28.9977104 9.01875,28.4388359 9.83125,28.1194791 C9.9125,27.3210871 10.31875,26.7622127 10.64375,26.4428559 C7.71875,26.1234991 4.7125,25.0057502 4.7125,20.1355588 C4.7125,18.7782924 5.2,17.5807043 6.0125,16.7024731 C5.85,16.3831163 5.44375,15.1056891 6.175,13.3492266 C6.175,13.3492266 7.23125,13.0298698 9.75,14.6266538 C10.80625,14.307297 11.8625,14.2274578 13,14.2274578 C14.1375,14.2274578 15.19375,14.3871362 16.25,14.6266538 C18.76875,12.9500306 19.825,13.3492266 19.825,13.3492266 C20.55625,15.1056891 20.06875,16.3831163 19.9875,16.7024731 C20.8,17.5807043 21.2875,18.6984532 21.2875,20.1355588 C21.2875,25.0057502 18.28125,26.1234991 15.35625,26.4428559 C15.84375,26.8420519 16.25,27.6404439 16.25,28.838032 L16.25,32.3509569 C16.25,32.6703137 16.49375,33.0695097 17.14375,32.9896705 C22.2625,31.233208 26,26.4428559 26,20.7742725 C26,13.7484226 20.15,8 13,8 L13,8 Z" fill="#000000"></path>
                    </g>
                </g>
            </g>
        </g>
    </g>
</svg>