<?xml version="1.0" encoding="UTF-8"?>
<svg width="40px" height="40px" viewBox="0 0 40 40" version="1.1" xmlns="http://www.w3.org/2000/svg" xmlns:xlink="http://www.w3.org/1999/xlink">
    <!-- Generator: Sketch 43 (38999) - http://www.bohemiancoding.com/sketch -->
    <title>googleplus</title>
    <desc>Created with Sketch.</desc>
    <defs></defs>
    <g id="shengbixing.com" stroke="none" stroke-width="1" fill="none" fill-rule="evenodd">
        <g transform="translate(-618.000000, -1236.000000)" id="social-media">
            <g transform="translate(128.000000, 1140.000000)">
                <g id="social_icons" transform="translate(10.000000, 36.000000)">
                    <g id="googleplus" transform="translate(480.000000, 60.000000)">
                        <rect id="bg" fill-opacity="0.01" fill="#FFFFFF" x="0" y="0" width="40" height="40"></rect>
                        <path d="M9.2274375,18.7139069 L9.2274375,21.7996464 L14.4610312,21.7996464 C14.249875,23.1237478 12.879625,25.6826753 9.2274375,25.6826753 C6.0773125,25.6826753 3.50628125,23.1370065 3.50628125,20 C3.50628125,16.8629935 6.07640625,14.3173247 9.2274375,14.3173247 C11.02,14.3173247 12.219875,15.0633471 12.905,15.7059517 L15.409875,13.3529758 C13.8012812,11.8874484 11.7187187,11 9.2274375,11 C4.12615625,11 0,15.0244549 0,20 C0,24.9755451 4.12615625,29 9.2274375,29 C14.5525625,29 18.0860312,25.3485563 18.0860312,20.2059517 C18.0860312,19.614614 18.019875,19.1647024 17.9410312,18.7147908 L9.2274375,18.7147908 L9.2274375,18.7139069 Z M26.3637188,18.7139069 L26.3637188,16.1426046 L23.7274375,16.1426046 L23.7274375,18.7139069 L21.0911563,18.7139069 L21.0911563,21.2852092 L23.7274375,21.2852092 L23.7274375,23.8565115 L26.3637188,23.8565115 L26.3637188,21.2852092 L29,21.2852092 L29,18.7139069 L26.3637188,18.7139069 L26.3637188,18.7139069 Z" fill="#000000"></path>
                    </g>
                </g>
            </g>
        </g>
    </g>
</svg>