<?xml version="1.0" encoding="UTF-8"?>
<svg width="40px" height="40px" viewBox="0 0 40 40" version="1.1" xmlns="http://www.w3.org/2000/svg" xmlns:xlink="http://www.w3.org/1999/xlink">
    <!-- Generator: Sketch 43 (38999) - http://www.bohemiancoding.com/sketch -->
    <title>gyroscope</title>
    <desc>Created with Sketch.</desc>
    <defs></defs>
    <g id="shengbixing.com" stroke="none" stroke-width="1" fill="none" fill-rule="evenodd">
        <g transform="translate(-138.000000, -1236.000000)" id="social-media">
            <g transform="translate(128.000000, 1140.000000)">
                <g id="social_icons" transform="translate(10.000000, 36.000000)">
                    <g id="gyroscope" transform="translate(0.000000, 60.000000)">
                        <rect id="bg" fill-opacity="0.01" fill="#FFFFFF" x="0" y="0" width="40" height="40"></rect>
                        <path d="M17.7799284,18.006835 C19.4212112,18.0067901 21.0624939,18.0065654 22.7037767,18.0070147 C22.9995609,18.0071045 23.0001656,18.0083624 22.9999929,18.3147898 C22.9980492,21.1224576 23.0048736,23.9301703 22.9828885,26.7376584 C22.9800378,27.1031162 22.8695074,27.4847915 22.7349187,27.8275176 C22.5823186,28.2161562 22.3758571,28.5917668 22.1374761,28.9309439 C21.9478597,29.2008031 21.6758315,29.4083526 21.4387463,29.6417783 C21.2744841,29.8034602 21.1123384,29.9681521 20.9400856,30.1202651 C20.7971606,30.2465019 20.6431783,30.3597556 20.4898439,30.4725601 C20.3282597,30.5914293 20.1642567,30.7072887 19.9964527,30.8164543 C19.8335727,30.9224303 19.6647753,31.0187027 19.4981375,31.1184342 C19.3541328,31.2045987 19.2093505,31.2894154 19.0650866,31.3751307 C18.8759022,31.4875308 18.6898709,31.6061754 18.4967559,31.7108037 C18.3554723,31.7873095 18.2042111,31.8437342 18.0588674,31.9124232 C17.9199162,31.9780573 17.7874871,32.0622451 17.6439143,32.1128746 C17.3776307,32.2068109 17.1056458,32.2833616 16.8353021,32.3645395 C16.7740115,32.3829584 16.690995,32.3689421 16.6500914,32.4071276 C16.4491586,32.5946858 16.163611,32.508746 15.9689843,32.6174174 C15.5165831,32.8701156 14.997233,32.6965737 14.5506627,32.9291459 C14.4352948,32.9892094 14.2831266,32.9881762 14.1477604,32.9887602 C13.1332482,32.9932526 12.1179153,33.0158494 11.1044829,32.9804492 C10.6083705,32.9631534 10.1037492,32.8784715 9.62651204,32.737859 C9.37050838,32.6624314 9.11290659,32.6278847 8.86096306,32.5597348 C8.55826799,32.4778382 8.2725477,32.3279264 7.9796142,32.2071703 C7.96639721,32.2017345 7.95486474,32.1915367 7.94147497,32.1868646 C7.68279336,32.0967468 7.41534361,32.0271594 7.16724423,31.9123782 C6.83340717,31.7580189 6.51408288,31.5696072 6.18927311,31.3944031 C6.00350093,31.2942223 5.81686489,31.1954342 5.63510963,31.087796 C5.53494556,31.0284961 5.44138998,30.9558089 5.34938934,30.8829869 C5.03187915,30.6315466 4.71557835,30.3783992 4.4002278,30.1239939 C4.17748259,29.9442974 3.92497755,29.7907467 3.74214247,29.5740327 C3.36442154,29.1263639 2.92549642,28.7357037 2.62245581,28.215123 C2.424892,27.8757212 2.1463417,27.5884315 1.92428758,27.2629113 C1.80961072,27.0948052 1.74460558,26.8908946 1.64677391,26.7092215 C1.55226809,26.5337928 1.43184659,26.3727398 1.34563379,26.1934925 C1.2353626,25.9643346 1.14513286,25.7245296 1.05157728,25.4870158 C0.95599164,25.2444705 0.867100881,24.9990949 0.774797891,24.7551569 C0.733332814,24.645587 0.682797251,24.539027 0.649841154,24.4268065 C0.531104177,24.0222648 0.405024427,23.6192505 0.308099809,23.2089136 C0.253676896,22.9784977 0.27898787,22.7271473 0.220548027,22.4984835 C-0.128017778,21.1347668 0.0349918064,19.7488577 0.0585318762,18.3721579 C0.0673000123,17.8593042 0.205819286,17.347888 0.296524142,16.8379543 C0.337298135,16.6086166 0.392455326,16.379863 0.465191982,16.1593754 C0.561166358,15.8682671 0.680594419,15.5855146 0.790563259,15.2993929 C0.803780252,15.2649361 0.822612308,15.2328154 0.835526952,15.1982687 C0.981216228,14.8079679 1.11485472,14.4122763 1.27522954,14.0286243 C1.39379375,13.7449284 1.5282097,13.4642874 1.68918923,13.2048506 C1.91227998,12.8451881 2.15135207,12.4935221 2.41154543,12.1621618 C2.82390698,11.6370886 3.24698035,11.1196077 3.69031113,10.6228816 C3.91677092,10.3691951 4.196617,10.1669467 4.45335493,9.94268551 C4.66409255,9.75863138 4.8668395,9.56249266 5.09049176,9.39708204 C5.33543806,9.21594798 5.60172161,9.06617096 5.85608394,8.89842429 C6.02751612,8.78535027 6.18853883,8.65403706 6.36502457,8.5507565 C6.53922109,8.44882367 6.72577074,8.36921813 6.90903774,8.28476078 C7.11869554,8.18817391 7.3309881,8.09774166 7.54155294,8.0032213 C7.65039877,7.95438878 7.75578917,7.89648159 7.86653548,7.85321966 C8.1605056,7.73834868 8.45659217,7.62931783 8.75159892,7.51741185 C8.77159718,7.50981967 8.78896068,7.49387161 8.8091749,7.48812132 C9.08966887,7.40842593 9.36640507,7.28960162 9.65186621,7.25873875 C10.4119729,7.17657253 11.155148,6.9656987 11.9329638,7.00478269 C12.8237286,7.04957204 13.71864,7.00392913 14.6097073,7.04489993 C15.1136375,7.06803585 15.6186476,7.16120848 16.1135506,7.27014948 C16.4684225,7.34831745 16.8072268,7.50519248 17.1535466,7.62581375 C17.1804125,7.63520289 17.2099131,7.63785342 17.2384636,7.64036917 C17.6049544,7.67217545 17.9206937,7.85555571 18.2495636,8.00182866 C18.4856122,8.10686125 18.7305585,8.19059982 18.9646202,8.29985528 C19.141797,8.38256059 19.3089531,8.48885106 19.4789167,8.58781891 C19.6669781,8.69729899 19.8558602,8.8057009 20.0392136,8.92326733 C20.1887902,9.0191354 20.3332269,9.1243477 20.4757199,9.23149173 C20.8146537,9.48630135 21.155272,9.73899954 21.4867335,10.0040968 C21.6441712,10.1300191 21.7853684,10.2789875 21.9258314,10.4259343 C21.9482053,10.4493398 21.9464775,10.5327639 21.9240173,10.5617848 C21.7998812,10.722119 21.6605845,10.8697846 21.5364484,11.0301637 C21.3356019,11.2895556 21.1467199,11.5590105 20.944664,11.8173242 C20.8115006,11.9875417 20.663047,12.1448211 20.5232752,12.3095578 C20.3978001,12.457448 20.2762556,12.6089771 20.1502622,12.7564181 C20.0345488,12.8918194 19.9104127,13.0196734 19.7987593,13.1584889 C19.6571734,13.3345466 19.5220231,13.5163994 19.3885142,13.6992855 C19.2259798,13.9217947 19.0724726,14.1515367 18.905878,14.3706316 C18.8438963,14.452124 18.7597136,14.5177581 18.6775609,14.5788998 C18.6514293,14.598352 18.5869856,14.5968246 18.560854,14.5762942 C18.2193718,14.3084566 17.8786239,14.039451 17.543923,13.7625836 C17.2364767,13.5082682 16.9067862,13.2973943 16.5614166,13.1006267 C16.2899499,12.9459529 16.0049639,12.8329688 15.7334541,12.6922215 C15.2960839,12.4654445 14.8275717,12.4027304 14.3759479,12.2581197 C13.3825138,11.9399671 12.3819528,12.0648112 11.3852792,12.115261 C11.0042324,12.1345784 10.6319538,12.3371861 10.2551831,12.4543932 C10.1871544,12.4755524 10.1131652,12.4789218 10.0479009,12.506011 C9.96008995,12.5424894 9.87728937,12.5924899 9.79405687,12.6399747 C9.76969614,12.6538114 9.7543627,12.6863813 9.72952684,12.6974776 C9.54107671,12.7818451 9.34385843,12.8486473 9.16417643,12.949457 C9.00993498,13.0359809 8.87590776,13.1611395 8.73185981,13.2676096 C8.60163355,13.363882 8.46203446,13.4482945 8.34066272,13.5552139 C8.14029138,13.7317657 7.94812666,13.9189196 7.75829435,14.1078704 C7.57757573,14.2877915 7.39888716,14.4706776 7.22987378,14.6624138 C7.14482718,14.7589108 7.07787835,14.8744556 7.01218212,14.987305 C6.84684013,15.2714501 6.68629253,15.5585602 6.52496747,15.8451761 C6.41586248,16.0390686 6.30878756,16.234174 6.20067601,16.4286955 C6.186336,16.4545269 6.16586262,16.4782468 6.15769918,16.505965 C6.07800849,16.777127 6.04384299,17.0750188 5.91150029,17.3142847 C5.726376,17.6490593 5.72624642,18.0076885 5.66949109,18.3622297 C5.62521848,18.6387826 5.54755785,18.9134936 5.53727797,19.1911696 C5.5173229,19.7292708 5.50911627,20.2706064 5.54380008,20.80727 C5.57330075,21.2641483 5.64396415,21.7227338 5.7455104,22.1684709 C5.81729682,22.4835687 5.97240212,22.7779565 6.08777006,23.0826319 C6.17985708,23.3258511 6.25142753,23.5792231 6.36238981,23.8124691 C6.48898787,24.0785996 6.64439553,24.3305341 6.79621818,24.5827381 C6.90946967,24.7708354 7.02017279,24.9654018 7.16197471,25.1289706 C7.38277625,25.3836903 7.63005496,25.6134772 7.86407349,25.8560225 C7.96501504,25.9606508 8.05027761,26.0846863 8.16128307,26.1751635 C8.36817653,26.3438087 8.58500433,26.5001895 8.80468285,26.6506853 C8.99550859,26.7814595 9.19605271,26.8969145 9.3919752,27.0196921 C9.40385322,27.0271046 9.41132557,27.0438163 9.42359232,27.0486232 C9.65743808,27.1403583 9.8909383,27.2331266 10.1260798,27.3211779 C10.4346491,27.4367227 10.7441255,27.5498866 11.0544224,27.6602651 C11.1149787,27.6817838 11.1807614,27.6911729 11.2449026,27.6974623 C11.6961377,27.7416676 12.1476319,27.817814 12.5989966,27.8175445 C13.1583864,27.81723 13.7196767,27.7720813 14.2764317,27.7102208 C14.6976046,27.6634098 15.119123,27.5845231 15.5286338,27.4729316 C15.7878338,27.4022659 16.025135,27.2448967 16.2727592,27.1275998 C16.3050242,27.1123256 16.3426451,27.1086868 16.3740031,27.0920199 C16.6162715,26.9629978 16.8586262,26.8340207 17.0989077,26.7010453 C17.2387659,26.623641 17.3679124,26.5191026 17.5147679,26.4634865 C17.6372194,26.4171698 17.6928949,26.3512211 17.6931109,26.2247148 C17.6948386,25.1466257 17.6988123,24.0685366 17.6900442,22.9905374 C17.6895259,22.9273292 17.5950201,22.8383794 17.5256956,22.8091787 C17.4438885,22.774677 17.3418239,22.7879296 17.2485275,22.7878847 C15.8304219,22.7869413 14.412273,22.7875702 12.9941674,22.7869413 C12.5954548,22.7867616 12.4991348,22.6851882 12.4990485,22.2696849 C12.4988757,20.9818901 12.4988325,19.6940952 12.4990916,18.4063452 C12.499178,18.0356314 12.5242299,18.0074639 12.8776764,18.0072842 C14.5117892,18.0063857 16.1458588,18.0068799 17.7799284,18.006835" fill="#000000"></path>
                    </g>
                </g>
            </g>
        </g>
    </g>
</svg>