<?xml version="1.0" encoding="UTF-8"?>
<svg width="40px" height="40px" viewBox="0 0 40 40" version="1.1" xmlns="http://www.w3.org/2000/svg" xmlns:xlink="http://www.w3.org/1999/xlink">
    <!-- Generator: Sketch 43 (38999) - http://www.bohemiancoding.com/sketch -->
    <title>instagram</title>
    <desc>Created with Sketch.</desc>
    <defs></defs>
    <g id="shengbixing.com" stroke="none" stroke-width="1" fill="none" fill-rule="evenodd">
        <g transform="translate(-138.000000, -1176.000000)" id="social-media">
            <g transform="translate(128.000000, 1140.000000)">
                <g id="social_icons" transform="translate(10.000000, 36.000000)">
                    <g id="instagram">
                        <rect id="bg" fill-opacity="0.01" fill="#FFFFFF" x="0" y="0" width="40" height="40"></rect>
                        <path d="M23.928,15.0528 C23.8696,13.7752 23.6672,12.9032 23.3704,12.14 C23.064,11.3512 22.6536,10.6816 21.9864,10.0144 C21.3192,9.3472 20.6504,8.9368 19.8608,8.6304 C19.0976,8.3336 18.2248,8.1312 16.948,8.0728 C15.668,8.0136 15.2592,8 12,8 C8.7408,8 8.332,8.0136 7.0528,8.072 C5.7752,8.1304 4.9032,8.3328 4.14,8.6296 C3.3512,8.936 2.6816,9.3464 2.0144,10.0136 C1.3472,10.6808 0.9368,11.3496 0.6304,12.1392 C0.3336,12.9024 0.1312,13.7752 0.0728,15.052 C0.0136,16.332 5.68434189e-14,16.7408 5.68434189e-14,20 C5.68434189e-14,23.2592 0.0136,23.668 0.072,24.9472 C0.1304,26.2248 0.3328,27.0968 0.6296,27.86 C0.936,28.6488 1.3464,29.3184 2.0136,29.9856 C2.6808,30.6528 3.3496,31.0632 4.1392,31.3696 C4.9024,31.6664 5.7752,31.8688 7.052,31.9272 C8.332,31.9864 8.7408,32 12,32 C15.2592,32 15.668,31.9864 16.9472,31.928 C18.2248,31.8696 19.0968,31.6672 19.86,31.3704 C20.6488,31.064 21.3184,30.6536 21.9856,29.9864 C22.6528,29.3192 23.0632,28.6504 23.3696,27.8608 C23.6664,27.0976 23.8688,26.2248 23.9272,24.948 C23.9864,23.668 24,23.2592 24,20 C24,16.7408 23.9864,16.332 23.928,15.0528 L23.928,15.0528 Z M21.768,24.8488 C21.7144,26.0184 21.5192,26.6544 21.3552,27.0768 C21.1376,27.6368 20.8776,28.0368 20.4576,28.4568 C20.0376,28.8768 19.6376,29.1368 19.0776,29.3544 C18.6544,29.5184 18.0192,29.7144 16.8496,29.7672 C15.5848,29.8248 15.2048,29.8368 12.0008,29.8368 C8.7968,29.8368 8.4168,29.8248 7.152,29.7672 C5.9824,29.7136 5.3464,29.5184 4.924,29.3544 C4.364,29.1368 3.964,28.8768 3.544,28.4568 C3.124,28.0368 2.864,27.6368 2.6464,27.0768 C2.4824,26.6536 2.2864,26.0184 2.2336,24.8488 C2.176,23.5832 2.164,23.204 2.164,20 C2.164,16.796 2.176,16.416 2.2336,15.1512 C2.2872,13.9816 2.4824,13.3456 2.6464,12.9232 C2.864,12.3632 3.124,11.9632 3.544,11.5432 C3.964,11.1232 4.364,10.8632 4.924,10.6456 C5.3472,10.4816 5.9824,10.2856 7.152,10.2328 C8.4176,10.1752 8.7968,10.1632 12.0008,10.1632 C15.2048,10.1632 15.5848,10.1752 16.8496,10.2328 C18.0192,10.2864 18.6552,10.4816 19.0776,10.6456 C19.6376,10.8632 20.0376,11.1232 20.4576,11.5432 C20.8776,11.9632 21.1376,12.3632 21.3552,12.9232 C21.5192,13.3464 21.7152,13.9816 21.768,15.1512 C21.8256,16.4168 21.8376,16.796 21.8376,20 C21.8376,23.204 21.8256,23.584 21.768,24.8488 L21.768,24.8488 Z M12,13.8376 C8.5968,13.8376 5.8376,16.5968 5.8376,20 C5.8376,23.4032 8.5968,26.1624 12,26.1624 C15.4032,26.1624 18.1624,23.4032 18.1624,20 C18.1624,16.5968 15.4032,13.8376 12,13.8376 L12,13.8376 Z M12,24 C9.7912,24 8,22.2088 8,20 C8,17.7912 9.7912,16 12,16 C14.2088,16 16,17.7912 16,20 C16,22.2088 14.2088,24 12,24 L12,24 Z M18.4056,12.1544 C17.6104,12.1544 16.9656,12.7992 16.9656,13.5944 C16.9656,14.3896 17.6104,15.0344 18.4056,15.0344 C19.2008,15.0344 19.8456,14.3896 19.8456,13.5944 C19.8456,12.7992 19.2008,12.1544 18.4056,12.1544 L18.4056,12.1544 Z" fill="#000000"></path>
                    </g>
                </g>
            </g>
        </g>
    </g>
</svg>