<?xml version="1.0" encoding="UTF-8"?>
<svg width="40px" height="40px" viewBox="0 0 40 40" version="1.1" xmlns="http://www.w3.org/2000/svg" xmlns:xlink="http://www.w3.org/1999/xlink">
    <!-- Generator: Sketch 43 (38999) - http://www.bohemiancoding.com/sketch -->
    <title>jianshu</title>
    <desc>Created with Sketch.</desc>
    <defs></defs>
    <g id="shengbixing.com" stroke="none" stroke-width="1" fill="none" fill-rule="evenodd">
        <g transform="translate(-738.000000, -1176.000000)" id="social-media">
            <g transform="translate(128.000000, 1140.000000)">
                <g id="social_icons" transform="translate(10.000000, 36.000000)">
                    <g id="jianshu" transform="translate(600.000000, 0.000000)">
                        <rect id="bg" fill-opacity="0.01" fill="#FFFFFF" x="0" y="0" width="40" height="40"></rect>
                        <path d="M7.3100625,8.57575758 L6.2424375,8.924 L4.8725625,10.1515152 L9.7475625,10.1515152 L11.349,9.03115152 L13.1649375,10.848 L7.03625,10.848 C8.1713125,11.3475152 8.8326875,11.7745455 9.0228125,12.1306667 C9.2105,12.4883636 9.306375,12.7365455 9.306375,12.8783636 C9.306375,13.0225455 9.23,13.2360606 9.078875,13.519697 C8.9269375,13.805697 8.6994375,13.9845455 8.398,14.0546667 C8.0949375,14.1263636 7.9048125,13.9128485 7.830875,13.4133333 C7.678125,12.9855152 7.5083125,12.5766061 7.3198125,12.1842424 C7.1305,11.7934545 6.8095625,11.3475152 6.355375,10.848 L4.6531875,10.848 C4.122625,11.2750303 3.518125,11.8470303 2.83725,12.557697 C2.08,13.3432121 1.2098125,14.0909091 0.2275,14.8023636 L0,14.481697 C0.9823125,13.4850303 1.94675,12.3095152 2.894125,10.9543636 C3.8390625,9.60236364 4.5394375,8.28266667 4.993625,7 L7.3100625,8.57575758 L7.3100625,8.57575758 Z M4.8725625,18.030303 C4.5045,26.266 4.473625,28.352303 4.8725625,31.4242424 L2.4350625,32.2121212 C2.509,28.9361212 2.4350625,26.0706061 2.4350625,22.7575758 C2.4350625,19.4437576 2.509,16.8075152 2.4350625,15.6666667 L5.6850625,16.4545455 L4.8725625,18.030303 L4.8725625,18.030303 Z M4.7669375,13.3061818 C6.5065,14.1610303 7.5083125,14.7858182 7.774,15.1766061 C8.0380625,15.5689697 8.1713125,15.9085455 8.1713125,16.1921818 C8.1713125,16.405697 8.0949375,16.6562424 7.944625,16.9398788 C7.791875,17.2258788 7.564375,17.4393939 7.26375,17.5812121 C6.959875,17.7253939 6.7705625,17.5465455 6.6958125,17.0470303 C6.5430625,16.6192121 6.316375,16.1220606 6.0149375,15.5508485 C5.711875,14.9812121 5.221125,14.3753333 4.5394375,13.734 L4.7669375,13.3061818 L4.7669375,13.3061818 Z M8.1225625,29.0606061 C8.4589375,26.4684848 8.36875,24.2206667 8.1225625,21.969697 C7.8788125,19.7423636 8.203,18.2477576 8.1225625,17.2424242 L10.088,18.2666667 L15.257125,18.2666667 L15.994875,17.107697 L18.611125,18.648 L17.0600625,19.6060606 C17.0600625,24.166303 16.9430625,26.9333333 17.626375,27.8047273 L15.4350625,28.2727273 L15.4350625,27.4848485 L9.7475625,27.4848485 L10.088,28.5823636 L8.1225625,29.0606061 L8.1225625,29.0606061 Z M17.0600625,29.0606061 C18.4218125,29.2024242 18.9304375,29.8114545 19.4975625,29.8484848 C20.0646875,29.8831515 20.007,29.9186061 20.3100625,29.8484848 C20.6115,29.7767879 21.1225625,29.4884242 21.1225625,29.0606061 L21.1225625,15.6666667 L12.9975625,15.6666667 C12.390625,15.6666667 11.39125,16.2410303 10.5600625,16.4545455 L9.7605625,14.9095152 L21.3354375,14.9095152 L22.35675,13.9475152 L23.946,15.443697 L22.7475625,16.4545455 L22.7475625,29.8484848 C22.7475625,30.3456364 22.8109375,30.3889697 22.58425,30.7821212 C22.35675,31.1721212 20.8455,31.8670303 19.8631875,32.2247273 C19.560125,31.1555758 18.2349375,30.4078788 15.8916875,29.9800606 L17.0600625,29.0606061 L17.0600625,29.0606061 Z M9.7475625,18.8181818 L9.7475625,21.969697 L15.4350625,21.969697 L15.4350625,18.8181818 L9.7475625,18.8181818 L9.7475625,18.8181818 Z M9.7475625,22.7575758 L9.7475625,26.6969697 L15.4350625,26.6969697 L15.4350625,22.7575758 L9.7475625,22.7575758 L9.7475625,22.7575758 Z M17.704375,8.49618182 L16.6830625,8.924 L16.2475625,10.1515152 L21.9350625,10.1515152 L23.378875,9.03115152 L25.194,10.848 L17.704375,10.848 C19.066125,11.4893333 19.803875,11.9352727 19.9168125,12.1842424 C20.0305625,12.4347879 20.0874375,12.6301818 20.0874375,12.772 C20.0874375,12.9153939 20.0484375,13.0761212 19.9736875,13.2526061 C19.8973125,13.4314545 19.7640625,13.5921818 19.576375,13.734 C19.3870625,13.8773939 19.2538125,13.9475152 19.1790625,13.9475152 C19.027125,13.9475152 18.8955,13.8238182 18.7825625,13.5732727 C18.6688125,13.324303 18.5355625,12.9508485 18.38525,12.4513333 C18.2325,12.0235152 17.8546875,11.4893333 17.2501875,10.848 L15.3213125,10.848 C14.18625,11.9888485 12.9748125,13.0572121 11.6894375,14.0546667 L11.349,13.734 C12.4840625,12.5230303 13.4095,11.2939394 14.129375,10.0459394 C14.847625,8.80030303 15.357875,7.82018182 15.66175,7.10715152 L17.704375,8.49618182 L17.704375,8.49618182 Z" fill="#000000"></path>
                    </g>
                </g>
            </g>
        </g>
    </g>
</svg>