<?xml version="1.0" encoding="UTF-8"?>
<svg width="41px" height="41px" viewBox="0 0 41 41" version="1.1" xmlns="http://www.w3.org/2000/svg" xmlns:xlink="http://www.w3.org/1999/xlink">
    <!-- Generator: Sketch 43 (38999) - http://www.bohemiancoding.com/sketch -->
    <title>jianshu</title>
    <desc>Created with Sketch.</desc>
    <defs></defs>
    <g id="shengbixing.com" stroke="none" stroke-width="1" fill="none" fill-rule="evenodd">
        <g transform="translate(-1077.000000, -1966.000000)" id="social-media">
            <g transform="translate(477.000000, 1930.333333)">
                <g id="social_icons" transform="translate(1.000000, 36.000000)">
                    <g id="jianshu" transform="translate(600.000000, 0.000000)">
                        <rect id="bg" fill-opacity="0.01" fill="#FFFFFF" x="0" y="0" width="40" height="40"></rect>
                        <path d="M7.59985998,8.63822634 L6.48991044,9.00027436 L5.06572861,10.2764527 L10.1339914,10.2764527 L11.7989157,9.11167375 L13.6868435,11.0005487 L7.31519256,11.0005487 C8.49525307,11.5198665 9.18284738,11.9638258 9.38050963,12.334065 C9.57563774,12.7059423 9.67531358,12.963963 9.67531358,13.1114034 C9.67531358,13.2613011 9.59591079,13.4832807 9.43879465,13.7781615 C9.28083379,14.0754996 9.04431487,14.2614383 8.73092729,14.3343393 C8.41585029,14.4088786 8.21818804,14.186899 8.14131939,13.6675812 C7.98251382,13.2228028 7.80596934,12.797683 7.60999651,12.3897647 C7.41317897,11.9834845 7.07951834,11.5198665 6.6073252,11.0005487 L4.83765679,11.0005487 C4.28606086,11.4445081 3.65759628,12.0391842 2.94972892,12.7780243 C2.16245877,13.5946801 1.25777387,14.3720185 0.236518928,15.1116777 L0,14.7782987 C1.02125494,13.7421205 2.02392626,12.5200037 3.00885865,11.111129 C3.99125691,9.7055308 4.71939732,8.33351624 5.19159047,7 L7.59985998,8.63822634 L7.59985998,8.63822634 Z M5.06572861,18.4675844 C4.68307478,27.0297744 4.65097578,29.198786 5.06572861,32.3925083 L2.53159724,33.2116215 C2.60846589,29.8057489 2.53159724,26.8266343 2.53159724,23.3822634 C2.53159724,19.9370734 2.60846589,17.1963207 2.53159724,16.0102449 L5.91043907,16.829358 L5.06572861,18.4675844 L5.06572861,18.4675844 Z M4.95591625,13.5561818 C6.76444134,14.4449196 7.80596934,15.0944764 8.08218966,15.5007565 C8.35672055,15.9086748 8.49525307,16.2617126 8.49525307,16.5565934 C8.49525307,16.778573 8.41585029,17.039051 8.25957885,17.3339318 C8.10077329,17.6312698 7.86425436,17.8532495 7.55171149,18.0006899 C7.23578978,18.1505876 7.03897224,17.9646489 6.96125888,17.4453312 C6.80245331,17.0005527 6.56677909,16.4836923 6.25339152,15.8898352 C5.93831451,15.2976164 5.4281094,14.6677184 4.71939732,14.0009603 L4.95591625,13.5561818 L4.95591625,13.5561818 Z M8.44457044,29.9351688 C8.79428057,27.2402864 8.70051771,24.9033566 8.44457044,22.5631502 C8.1911573,20.2475173 8.52819678,18.6936596 8.44457044,17.6484712 L10.487925,18.7133183 L15.861973,18.7133183 L16.6289701,17.5084029 L19.3489377,19.1097691 L17.7363855,20.1058107 C17.7363855,24.8468378 17.6147472,27.7235632 18.3251487,28.6295024 L16.0469646,29.1160556 L16.0469646,28.2969424 L10.1339914,28.2969424 L10.487925,29.4379671 L8.44457044,29.9351688 L8.44457044,29.9351688 Z M17.7363855,29.9351688 C19.1521202,30.0826091 19.6809089,30.7157836 20.2705168,30.7542819 C20.8601247,30.7903229 20.8001503,30.827183 21.1152273,30.7542819 C21.4286149,30.6797427 21.9599378,30.3799472 21.9599378,29.9351688 L21.9599378,16.0102449 L13.5128332,16.0102449 C12.8818345,16.0102449 11.8428406,16.6073784 10.9787018,16.829358 L10.1475067,15.2230771 L22.1812519,15.2230771 L23.2430529,14.2229399 L24.8953066,15.7784359 L23.6493587,16.829358 L23.6493587,30.7542819 C23.6493587,31.2711424 23.7152461,31.3161936 23.4795719,31.7249311 C23.2430529,32.1303921 21.6718915,32.8528499 20.6506365,33.2247273 C20.3355595,32.1131907 18.9578368,31.3358523 16.5216918,30.8910738 L17.7363855,29.9351688 L17.7363855,29.9351688 Z M10.1339914,19.2866976 L10.1339914,22.5631502 L16.0469646,22.5631502 L16.0469646,19.2866976 L10.1339914,19.2866976 L10.1339914,19.2866976 Z M10.1339914,23.3822634 L10.1339914,27.4778293 L16.0469646,27.4778293 L16.0469646,23.3822634 L10.1339914,23.3822634 L10.1339914,23.3822634 Z M18.4062409,8.55549591 L17.3444398,9.00027436 L16.891675,10.2764527 L22.8046482,10.2764527 L24.3056987,9.11167375 L26.1927819,11.0005487 L18.4062409,11.0005487 C19.8219756,11.6673068 20.5889727,12.1309249 20.7063874,12.3897647 C20.8246469,12.6502427 20.8837766,12.8533827 20.8837766,13.0008231 C20.8837766,13.1499017 20.8432305,13.3170008 20.7655172,13.5004821 C20.6861144,13.6864208 20.5475819,13.8535199 20.3524538,14.0009603 C20.1556362,14.1500389 20.0171037,14.2229399 19.9393903,14.2229399 C19.7814295,14.2229399 19.6445864,14.0943392 19.5271716,13.8338612 C19.4089122,13.5750214 19.2703797,13.1867618 19.1141082,12.667444 C18.9553027,12.2226656 18.5625123,11.6673068 17.9340477,11.0005487 L15.9287051,11.0005487 C14.7486446,12.1866246 13.4891813,13.2973421 12.1528493,14.3343393 L11.7989157,14.0009603 C12.9789762,12.7419833 13.9411014,11.4641668 14.6895149,10.1666915 C15.4362389,8.8716736 15.9667171,7.85269681 16.2826388,7.11139939 L18.4062409,8.55549591 L18.4062409,8.55549591 Z" stroke="#000000" stroke-width="0.5" fill="#000000"></path>
                    </g>
                </g>
            </g>
        </g>
    </g>
</svg>