<?xml version="1.0" encoding="UTF-8"?>
<svg width="40px" height="40px" viewBox="0 0 40 40" version="1.1" xmlns="http://www.w3.org/2000/svg" xmlns:xlink="http://www.w3.org/1999/xlink">
    <!-- Generator: Sketch 43 (38999) - http://www.bohemiancoding.com/sketch -->
    <title>medium</title>
    <desc>Created with Sketch.</desc>
    <defs></defs>
    <g id="shengbixing.com" stroke="none" stroke-width="1" fill="none" fill-rule="evenodd">
        <g transform="translate(-198.000000, -1176.000000)" id="social-media">
            <g transform="translate(128.000000, 1140.000000)">
                <g id="social_icons" transform="translate(10.000000, 36.000000)">
                    <g id="medium" transform="translate(60.000000, 0.000000)">
                        <rect id="bg" fill-opacity="0.01" fill="#FFFFFF" x="0" y="0" width="40" height="40"></rect>
                        <path d="M23.9264025,13.6595644 C23.9216026,13.655626 23.9176027,13.6516876 23.9120029,13.6485369 L23.9040032,13.6445985 L16.6642445,10.0803434 C16.6154462,10.0559253 16.5642479,10.0401717 16.5122496,10.0267811 C16.4466518,10.0102398 16.380254,10 16.3130562,10 C16.0354655,10 15.7594747,10.1370564 15.6106796,10.3757237 L11.4428186,17.045016 L16.6730442,25.4141231 L23.9488017,13.7729904 C23.9728009,13.7351818 23.9616013,13.6871332 23.9264025,13.6595644 L23.9264025,13.6595644 Z M9.1468951,23.1180339 L16.0002667,26.4916703 L9.1468951,15.5263676 L9.1468951,23.1180339 L9.1468951,23.1180339 Z M17.0298323,26.998149 L22.6712443,29.775511 C23.4048198,30.1370564 24,29.8842109 24,29.210744 L24,15.846166 L17.0298323,26.998149 L17.0298323,26.998149 Z M7.95733476,13.6705919 L0.886370454,10.189831 C0.758374721,10.1268166 0.636778774,10.0968847 0.527182427,10.0968847 C0.217592747,10.0968847 0,10.3324012 0,10.7286046 L0,25.7599149 C0,26.1624198 0.299190027,26.6389666 0.664777841,26.8185578 L6.89257025,29.8842109 C7.05256491,29.962979 7.20455985,30 7.34135529,30 C7.72854238,30 7.99973334,29.7054074 7.99973334,29.2099563 L7.99973334,13.7391202 C8.00053332,13.709976 7.98373388,13.6831948 7.95733476,13.6705919 L7.95733476,13.6705919 Z" fill="#000000"></path>
                    </g>
                </g>
            </g>
        </g>
    </g>
</svg>