<?xml version="1.0" encoding="UTF-8"?>
<svg width="40px" height="40px" viewBox="0 0 40 40" version="1.1" xmlns="http://www.w3.org/2000/svg" xmlns:xlink="http://www.w3.org/1999/xlink">
    <!-- Generator: Sketch 43 (38999) - http://www.bohemiancoding.com/sketch -->
    <title>next</title>
    <desc>Created with Sketch.</desc>
    <defs></defs>
    <g id="shengbixing.com" stroke="none" stroke-width="1" fill="none" fill-rule="evenodd">
        <g transform="translate(-318.000000, -1176.000000)" id="social-media">
            <g transform="translate(128.000000, 1140.000000)">
                <g id="social_icons" transform="translate(10.000000, 36.000000)">
                    <g id="next" transform="translate(180.000000, 0.000000)">
                        <rect id="bg" fill-opacity="0.01" fill="#FFFFFF" x="0" y="0" width="40" height="40"></rect>
                        <path d="M15.7407407,27 L18.2592593,27 L19.5185185,24.9473684 L20.7777778,23.1 L22.037037,24.9473684 L23.2962963,27 L27.0740741,27 L22.6666667,20.1578947 L25.2131684,16.6 L27.0740741,16.6 L27.0740741,27 L30.2222222,27 L30.2222222,16.6 L34,16.6 L34,14 L25.1851852,14 L23.2962963,14 L22.037037,16.0526316 L20.7777778,17.9 L19.5185185,16.0526316 L18.2592593,14 L15.7407407,14 L8.18518519,14 L8.18518519,16.3947368 L8.18518519,18.7894737 L8.18518519,21.5263158 L3.14814815,14 L0,14 L0,27 L3.14814815,27 L3.14814815,22.8947368 L3.14814815,19.4736842 L8.18518519,27 L9.75925926,27 L15.7407407,27 L15.7407407,27 Z M16.1562963,24.4 L18.8888889,20.1578947 L16.3423871,16.6 L11.3333333,16.6 L11.3333333,19.2 L15.1111111,19.2 L15.1111111,21.8 L11.3333333,21.8 L11.3333333,24.4 L16.1562963,24.4 L16.1562963,24.4 Z" id="NEXT" fill="#000000"></path>
                    </g>
                </g>
            </g>
        </g>
    </g>
</svg>