<?xml version="1.0" encoding="UTF-8"?>
<svg width="40px" height="40px" viewBox="0 0 40 40" version="1.1" xmlns="http://www.w3.org/2000/svg" xmlns:xlink="http://www.w3.org/1999/xlink">
    <!-- Generator: Sketch 43 (38999) - http://www.bohemiancoding.com/sketch -->
    <title>pinterest</title>
    <desc>Created with Sketch.</desc>
    <defs></defs>
    <g id="shengbixing.com" stroke="none" stroke-width="1" fill="none" fill-rule="evenodd">
        <g transform="translate(-678.000000, -1236.000000)" id="social-media">
            <g transform="translate(128.000000, 1140.000000)">
                <g id="social_icons" transform="translate(10.000000, 36.000000)">
                    <g id="pinterest" transform="translate(540.000000, 60.000000)">
                        <rect id="bg" fill-opacity="0.01" fill="#FFFFFF" x="0" y="0" width="40" height="40"></rect>
                        <path d="M12.9595016,7 C5.8317757,7 0,12.7956656 0,19.879257 C0,25.1919505 3.1588785,29.6996904 7.77570093,31.7120743 C7.77570093,30.8266254 7.77570093,29.6996904 8.01869159,28.7337461 C8.26168224,27.6873065 9.71962617,21.7306502 9.71962617,21.7306502 C9.71962617,21.7306502 9.31464174,20.9256966 9.31464174,19.7182663 C9.31464174,17.7863777 10.4485981,16.4179567 11.8255452,16.4179567 C13.0404984,16.4179567 13.6074766,17.3034056 13.6074766,18.3498452 C13.6074766,19.5572755 12.8785047,21.3281734 12.4735202,22.9380805 C12.1495327,24.3065015 13.2024922,25.4334365 14.4984424,25.4334365 C16.9283489,25.4334365 18.6292835,22.2941176 18.6292835,18.5913313 C18.6292835,15.7739938 16.6853583,13.6811146 13.2024922,13.6811146 C9.23364486,13.6811146 6.80373832,16.5789474 6.80373832,19.879257 C6.80373832,21.006192 7.12772586,21.8111455 7.69470405,22.374613 C7.9376947,22.6160991 7.9376947,22.7770898 7.85669782,23.0990712 C7.77570093,23.3405573 7.61370717,23.9040248 7.61370717,24.1455108 C7.53271028,24.4674923 7.28971963,24.628483 6.96573209,24.4674923 C5.18380062,23.7430341 4.29283489,21.7306502 4.29283489,19.5572755 C4.29283489,15.9349845 7.37071651,11.5077399 13.5264798,11.5077399 C18.4672897,11.5077399 21.7071651,15.0495356 21.7071651,18.9133127 C21.7071651,23.9845201 18.8722741,27.7678019 14.741433,27.7678019 C13.364486,27.7678019 11.9875389,27.0433437 11.5825545,26.1578947 C11.5825545,26.1578947 10.8535826,29.1362229 10.6915888,29.6996904 C10.4485981,30.6656347 9.88161994,31.7120743 9.39563863,32.4365325 C10.529595,32.7585139 11.8255452,33 13.0404984,33 C20.1682243,33 26,27.2043344 26,20.120743 C25.9190031,12.7956656 20.0872274,7 12.9595016,7 L12.9595016,7 Z" fill="#000000"></path>
                    </g>
                </g>
            </g>
        </g>
    </g>
</svg>