<?xml version="1.0" encoding="UTF-8"?>
<svg width="40px" height="40px" viewBox="0 0 40 40" version="1.1" xmlns="http://www.w3.org/2000/svg" xmlns:xlink="http://www.w3.org/1999/xlink">
    <!-- Generator: Sketch 43 (38999) - http://www.bohemiancoding.com/sketch -->
    <title>squarespace</title>
    <desc>Created with Sketch.</desc>
    <defs></defs>
    <g id="shengbixing.com" stroke="none" stroke-width="1" fill="none" fill-rule="evenodd">
        <g transform="translate(-438.000000, -1236.000000)" id="social-media">
            <g transform="translate(128.000000, 1140.000000)">
                <g id="social_icons" transform="translate(10.000000, 36.000000)">
                    <g id="squarespace" transform="translate(300.000000, 60.000000)">
                        <rect id="bg" fill-opacity="0.01" fill="#FFFFFF" x="0" y="0" width="40" height="40"></rect>
                        <path d="M24.5223347,16.5354331 C22.5799716,14.6456693 19.4236315,14.6456693 17.4812683,16.5354331 L9.54995213,24.2519685 C9.06436135,24.7244094 9.06436135,25.511811 9.54995213,25.984252 C10.0355429,26.4566929 10.8448609,26.4566929 11.3304517,25.984252 L19.2617679,18.2677165 C20.2329494,17.3228346 21.8515854,17.3228346 22.822767,18.2677165 C23.7939485,19.2125984 23.7939485,20.7874016 22.822767,21.7322835 L15.0533144,29.2913386 C16.024496,30.2362205 17.6431319,30.2362205 18.6143135,29.2913386 L24.6841983,23.3858268 C26.4646979,21.5748031 26.4646979,18.4251969 24.5223347,16.5354331 L24.5223347,16.5354331 Z M21.8515854,19.1338583 C21.3659946,18.6614173 20.5566766,18.6614173 20.0710858,19.1338583 L12.1397697,26.8503937 C11.1685881,27.7952756 9.54995213,27.7952756 8.57877056,26.8503937 C8.09317977,26.3779528 7.2838618,26.3779528 6.79827101,26.8503937 C6.31268022,27.3228346 6.31268022,28.1102362 6.79827101,28.5826772 C8.74063416,30.4724409 11.8969743,30.4724409 13.8393374,28.5826772 L21.7706536,20.8661417 C22.3371762,20.3937008 22.3371762,19.6062992 21.8515854,19.1338583 L21.8515854,19.1338583 Z M19.1808361,11.4173228 C17.2384729,9.52755906 14.0821328,9.52755906 12.1397697,11.4173228 L4.20845348,19.1338583 C3.7228627,19.6062992 3.7228627,20.3937008 4.20845348,20.8661417 C4.69404427,21.3385827 5.50336225,21.3385827 5.98895303,20.8661417 L13.9202692,13.1496063 C14.8914508,12.2047244 16.5100867,12.2047244 17.4812683,13.1496063 C17.9668591,13.6220472 18.7761771,13.6220472 19.2617679,13.1496063 C19.6664268,12.6771654 19.6664268,11.8897638 19.1808361,11.4173228 L19.1808361,11.4173228 Z M16.5910185,14.015748 C16.1054277,13.5433071 15.2961098,13.5433071 14.810519,14.015748 L6.87920281,21.7322835 C5.90802123,22.6771654 4.28938528,22.6771654 3.31820371,21.7322835 C2.34702213,20.7874016 2.34702213,19.2125984 3.31820371,18.2677165 L11.0876563,10.7086614 C10.1164747,9.76377953 8.49783876,9.76377953 7.52665719,10.7086614 L1.45677236,16.6141732 C-0.485590786,18.503937 -0.485590786,21.5748031 1.45677236,23.4645669 C3.3991355,25.3543307 6.55547562,25.3543307 8.49783876,23.4645669 L16.4291549,15.7480315 C17.0766093,15.1968504 17.0766093,14.488189 16.5910185,14.015748 L16.5910185,14.015748 Z" fill="#000000"></path>
                    </g>
                </g>
            </g>
        </g>
    </g>
</svg>