<?xml version="1.0" encoding="UTF-8"?>
<svg width="40px" height="40px" viewBox="0 0 40 40" version="1.1" xmlns="http://www.w3.org/2000/svg" xmlns:xlink="http://www.w3.org/1999/xlink">
    <!-- Generator: Sketch 43 (38999) - http://www.bohemiancoding.com/sketch -->
    <title>tumblr</title>
    <desc>Created with Sketch.</desc>
    <defs></defs>
    <g id="shengbixing.com" stroke="none" stroke-width="1" fill="none" fill-rule="evenodd">
        <g transform="translate(-258.000000, -1236.000000)" id="social-media">
            <g transform="translate(128.000000, 1140.000000)">
                <g id="social_icons" transform="translate(10.000000, 36.000000)">
                    <g id="tumblr" transform="translate(120.000000, 60.000000)">
                        <rect id="bg" fill-opacity="0.01" fill="#FFFFFF" x="0" y="0" width="40" height="40"></rect>
                        <path d="M12.495913,29.0768 C11.7493043,29.0768 11.088,28.8936 10.5073043,28.5288 C10.0698261,28.2584 9.66991304,27.7896 9.50947826,27.3376 C9.34826087,26.884 9.36782609,25.964 9.36782609,24.364 L9.3693913,17.2128 L15.5402609,17.2128 L15.5402609,12.3072 L9.3693913,12.3072 L9.36782609,6 L5.64104348,6 C5.47356522,7.4216 5.16834783,8.5944 4.72382609,9.5128 C4.27930435,10.4352 3.69156522,11.2216 2.95513043,11.88 C2.22182609,12.536 1.02913043,13.0408 0,13.392 L0,17.2128 L3.65634783,17.2128 L3.65634783,27.0248 C3.65634783,28.2848 3.68530435,29.1872 3.93652174,29.8496 C4.18852174,30.5128 4.63773913,31.14 5.28886957,31.7304 C5.93765217,32.3144 6.7233913,32.7712 7.64373913,33.0912 C8.56408696,33.408 9.27078261,33.5664 10.4689565,33.5664 C11.5231304,33.5664 12.5053043,33.4536 13.4131304,33.2312 C14.3201739,33.0072 15.336,32.6176 16.4543478,32.0632 L16.4543478,27.716 C15.141913,28.6232 13.8224348,29.0768 12.495913,29.0768 L12.495913,29.0768 Z" fill="#000000"></path>
                    </g>
                </g>
            </g>
        </g>
    </g>
</svg>