<?xml version="1.0" encoding="UTF-8"?>
<svg width="40px" height="40px" viewBox="0 0 40 40" version="1.1" xmlns="http://www.w3.org/2000/svg" xmlns:xlink="http://www.w3.org/1999/xlink">
    <!-- Generator: Sketch 43 (38999) - http://www.bohemiancoding.com/sketch -->
    <title>twitter</title>
    <desc>Created with Sketch.</desc>
    <defs></defs>
    <g id="shengbixing.com" stroke="none" stroke-width="1" fill="none" fill-rule="evenodd">
        <g transform="translate(-138.000000, -1296.000000)" id="social-media">
            <g transform="translate(128.000000, 1140.000000)">
                <g id="social_icons" transform="translate(10.000000, 36.000000)">
                    <g id="twitter" transform="translate(0.000000, 120.000000)">
                        <rect id="bg" fill-opacity="0.01" fill="#FFFFFF" x="0" y="0" width="40" height="40"></rect>
                        <path d="M26,12.5038462 C25.025,12.9076923 24.05,13.2307692 22.9125,13.3115385 C24.05,12.6653846 24.8625,11.6153846 25.26875,10.4038462 C24.2125,11.05 23.075,11.4538462 21.85625,11.6961538 C20.88125,10.6461538 19.5,10 18.0375,10 C15.1125,10 12.675,12.3423077 12.675,15.3307692 C12.675,15.7346154 12.75625,16.1384615 12.8375,16.5423077 C8.36875,16.3 4.46875,14.2 1.86875,10.9692308 C1.38125,11.7769231 1.1375,12.6653846 1.1375,13.6346154 C1.1375,15.4923077 2.1125,17.1076923 3.49375,18.0769231 C2.6,18.0769231 1.7875,17.8346154 1.05625,17.4307692 L1.05625,17.5115385 C1.05625,20.0961538 2.925,22.1961538 5.3625,22.6807692 C4.875,22.7615385 4.46875,22.8423077 3.98125,22.8423077 C3.65625,22.8423077 3.33125,22.8423077 3.00625,22.7615385 C3.65625,24.8615385 5.6875,26.3961538 7.9625,26.4769231 C6.175,27.9307692 3.81875,28.7384615 1.3,28.7384615 C0.89375,28.7384615 0.40625,28.7384615 0,28.6576923 C2.35625,30.1923077 5.2,31 8.20625,31 C18.0375,31 23.4,22.9230769 23.4,15.8961538 L23.4,15.25 C24.375,14.4423077 25.26875,13.5538462 26,12.5038462 L26,12.5038462 Z" fill="#000000"></path>
                    </g>
                </g>
            </g>
        </g>
    </g>
</svg>