<?xml version="1.0" encoding="UTF-8"?>
<svg width="40px" height="40px" viewBox="0 0 40 40" version="1.1" xmlns="http://www.w3.org/2000/svg" xmlns:xlink="http://www.w3.org/1999/xlink">
    <!-- Generator: Sketch 43 (38999) - http://www.bohemiancoding.com/sketch -->
    <title>ui.cn</title>
    <desc>Created with Sketch.</desc>
    <defs></defs>
    <g id="shengbixing.com" stroke="none" stroke-width="1" fill="none" fill-rule="evenodd">
        <g transform="translate(-318.000000, -1236.000000)" id="social-media">
            <g transform="translate(128.000000, 1140.000000)">
                <g id="social_icons" transform="translate(10.000000, 36.000000)">
                    <g id="ui.cn" transform="translate(180.000000, 60.000000)">
                        <rect id="bg" fill-opacity="0.01" fill="#FFFFFF" x="0" y="0" width="40" height="40"></rect>
                        <path d="M23.4787879,11.8514189 L14.3370303,6.42385135 C13.3844848,5.85871622 11.8260606,5.85871622 10.8735152,6.42385135 L1.73175758,11.8514189 C0.78,12.4165541 -1.77635684e-15,13.8046622 -1.77635684e-15,14.9357432 L-1.77635684e-15,25.7908784 C-1.77635684e-15,26.9219595 0.78,28.3100676 1.73175758,28.8760135 L10.8735152,34.3027703 C11.8260606,34.8687162 13.3844848,34.8687162 14.3370303,34.3027703 L23.4787879,28.8760135 C24.4313333,28.3100676 25.2105455,26.9219595 25.2105455,25.7908784 L25.2105455,14.9357432 C25.2105455,13.8046622 24.4313333,12.4165541 23.4787879,11.8514189 L23.4787879,11.8514189 Z M15.5984242,20.3633108 C15.5984242,23.8238514 12.8069697,27.0752027 9.44193939,27.0752027 C6.07690909,27.0752027 3.13890909,24.0492568 3.13890909,20.5887162 L3.13890909,20.5887162 L3.13890909,15.7238514 C3.13890909,14.9041216 3.91812121,14.1022297 4.71466667,14.1022297 C5.51121212,14.1022297 6.29751515,14.7622297 6.29751515,15.5811486 L6.29751515,20.3633108 C6.29751515,22.1852027 7.67078788,23.8319595 9.44193939,23.8319595 C11.2130909,23.8319595 12.7124242,22.1852027 12.7124242,20.3633108 L12.7124242,15.5811486 C12.7124242,14.7622297 13.3584848,14.0973649 14.1558182,14.0973649 C14.9523636,14.0973649 15.5984242,14.7622297 15.5984242,15.5811486 L15.5984242,20.3633108 L15.5984242,20.3633108 Z M22.048,25.4535811 C22.048,26.2733108 21.2687879,27.0752027 20.4722424,27.0752027 C19.675697,27.0752027 18.9130303,25.9652027 18.9130303,25.145473 L18.8964848,15.7238514 C18.8964848,14.9041216 19.5590909,14.0973649 20.3556364,14.0973649 C21.1529697,14.0973649 22.048,14.9041216 22.048,15.7238514 L22.048,25.4535811 L22.048,25.4535811 Z" fill="#000000"></path>
                    </g>
                </g>
            </g>
        </g>
    </g>
</svg>