<?xml version="1.0" encoding="UTF-8"?>
<svg width="40px" height="40px" viewBox="0 0 40 40" version="1.1" xmlns="http://www.w3.org/2000/svg" xmlns:xlink="http://www.w3.org/1999/xlink">
    <!-- Generator: Sketch 43 (38999) - http://www.bohemiancoding.com/sketch -->
    <title>Vimeo</title>
    <desc>Created with Sketch.</desc>
    <defs></defs>
    <g id="shengbixing.com" stroke="none" stroke-width="1" fill="none" fill-rule="evenodd">
        <g transform="translate(-738.000000, -1236.000000)" id="social-media">
            <g transform="translate(128.000000, 1140.000000)">
                <g id="social_icons" transform="translate(10.000000, 36.000000)">
                    <g id="Vimeo" transform="translate(600.000000, 60.000000)">
                        <rect id="bg" fill-opacity="0.01" fill="#FFFFFF" x="0" y="0" width="40" height="40"></rect>
                        <path d="M23.9858907,14.791012 C23.9059377,17.1413153 22.2269253,20.3831129 19.1087596,24.5164048 C15.8306878,28.8117866 13.1122869,31 10.7936508,31 C9.43445032,31 8.23515579,29.703281 7.27572016,27.1098429 C6.63609641,24.6784947 5.99647266,22.3281914 5.35684891,19.8968432 C4.63727219,17.3034052 3.8377425,16.0066861 3.03821282,16.0066861 C2.87830688,16.0066861 2.23868313,16.4119108 1.11934156,17.1413153 L0,15.6014614 C1.19929453,14.5478772 2.3186361,13.494293 3.51793063,12.4407088 C5.11699001,11.0629448 6.31628454,10.3335403 7.03586126,10.2524954 C8.87477954,10.0904055 10.0740741,11.3871246 10.4738389,14.1426525 C10.9535567,17.1413153 11.2733686,19.0053489 11.4332745,19.7347534 C11.9929453,22.2471465 12.5526161,23.4628206 13.1922399,23.4628206 C13.6719577,23.4628206 14.4714874,22.6523712 15.430923,21.0314724 C16.4703116,19.4105736 16.9500294,18.1948995 17.0299824,17.3844501 C17.1898883,16.0066861 16.6302175,15.2772817 15.430923,15.2772817 C14.8712522,15.2772817 14.2316285,15.4393716 13.6719577,15.6825064 C14.8712522,11.7923493 17.1099353,9.8472707 20.3880071,10.0093606 C22.9465021,10.0093606 24.1457966,11.6302594 23.9858907,14.791012 L23.9858907,14.791012 Z" fill="#000000"></path>
                    </g>
                </g>
            </g>
        </g>
    </g>
</svg>