<?xml version="1.0" encoding="UTF-8"?>
<svg width="40px" height="40px" viewBox="0 0 40 40" version="1.1" xmlns="http://www.w3.org/2000/svg" xmlns:xlink="http://www.w3.org/1999/xlink">
    <!-- Generator: Sketch 43 (38999) - http://www.bohemiancoding.com/sketch -->
    <title>vsco</title>
    <desc>Created with Sketch.</desc>
    <defs></defs>
    <g id="shengbixing.com" stroke="none" stroke-width="1" fill="none" fill-rule="evenodd">
        <g transform="translate(-678.000000, -1176.000000)" id="social-media">
            <g transform="translate(128.000000, 1140.000000)">
                <g id="social_icons" transform="translate(10.000000, 36.000000)">
                    <g id="vsco" transform="translate(540.000000, 0.000000)">
                        <rect id="bg" fill-opacity="0.01" fill="#FFFFFF" x="0" y="0" width="40" height="40"></rect>
                        <path d="M13,7 C5.8313125,7 0,12.832125 0,20 C0,27.167875 5.8313125,33 13,33 C20.1686875,33 26,27.167875 26,20 C26,12.832125 20.1686875,7 13,7 L13,7 Z M24.470875,20 C24.470875,20.7605 24.392875,21.5023125 24.2506875,22.2221875 L21.2818125,21.42675 C21.3614375,20.962 21.412625,20.4875 21.412625,20 C21.412625,19.5125 21.36225,19.038 21.2818125,18.57325 L24.2506875,17.7778125 C24.3920625,18.4976875 24.470875,19.2395 24.470875,20 L24.470875,20 Z M1.529125,20 C1.529125,19.2395 1.607125,18.4976875 1.7493125,17.778625 L4.7181875,18.5740625 C4.6385625,19.0388125 4.587375,19.5133125 4.587375,20 C4.587375,20.4866875 4.63775,20.962 4.7181875,21.4259375 L1.7493125,22.221375 C1.6079375,21.5023125 1.529125,20.7605 1.529125,20 L1.529125,20 Z M7.6204375,13.540625 L5.458375,11.3785625 C6.5715,10.4035625 7.8723125,9.6414375 9.3015,9.1523125 L10.0953125,12.1155 C9.18775,12.451875 8.3500625,12.9320625 7.6204375,13.540625 L7.6204375,13.540625 Z M6.539,14.6220625 C5.9304375,15.3516875 5.4510625,16.1885625 5.1155,17.0953125 L2.1523125,16.3015 C2.640625,14.873125 3.4019375,13.573125 4.3769375,12.46 L6.539,14.6220625 L6.539,14.6220625 Z M5.1163125,22.9046875 C5.451875,23.81225 5.9320625,24.649125 6.540625,25.37875 L4.3785625,27.5408125 C3.4035625,26.4276875 2.64225,25.1276875 2.153125,23.6985 L5.1163125,22.9046875 L5.1163125,22.9046875 Z M7.62125,26.4601875 C8.350875,27.06875 9.1885625,27.5489375 10.0953125,27.8845 L9.3015,30.8476875 C7.8723125,30.3585625 6.5723125,29.59725 5.4591875,28.62225 L7.62125,26.4601875 L7.62125,26.4601875 Z M6.1173125,20 C6.1173125,16.2048125 9.2048125,13.1173125 13,13.1173125 C16.7951875,13.1173125 19.8826875,16.2048125 19.8826875,20 C19.8826875,23.7951875 16.7951875,26.8826875 13,26.8826875 C9.2048125,26.8826875 6.1173125,23.7951875 6.1173125,20 L6.1173125,20 Z M19.4601875,14.62125 L21.62225,12.4591875 C22.59725,13.5723125 23.3585625,14.8723125 23.846875,16.3015 L20.8836875,17.0953125 C20.548125,16.18775 20.06875,15.350875 19.4601875,14.62125 L19.4601875,14.62125 Z M18.37875,13.5398125 C17.649125,12.93125 16.8114375,12.4510625 15.903875,12.1155 L16.6976875,9.1523125 C18.126875,9.640625 19.4276875,10.40275 20.5408125,11.37775 L18.37875,13.5398125 L18.37875,13.5398125 Z M18.3779375,26.461 L20.54,28.6230625 C19.426875,29.5980625 18.126875,30.359375 16.6976875,30.8476875 L15.903875,27.8845 C16.810625,27.5489375 17.6483125,27.0695625 18.3779375,26.461 L18.3779375,26.461 Z M19.459375,25.3795625 C20.0679375,24.6499375 20.548125,23.81225 20.8836875,22.9046875 L23.846875,23.6985 C23.35775,25.1276875 22.5964375,26.4276875 21.6214375,27.5408125 L19.459375,25.3795625 L19.459375,25.3795625 Z M15.223,8.7493125 L14.4275625,11.7181875 C13.9628125,11.6385625 13.4875,11.5881875 13,11.5881875 C12.5125,11.5881875 12.0371875,11.6385625 11.571625,11.719 L10.7761875,8.750125 C11.4960625,8.6079375 12.2386875,8.5299375 13,8.5299375 C13.7605,8.529125 14.503125,8.6079375 15.223,8.7493125 L15.223,8.7493125 Z M10.777,31.2506875 L11.5724375,28.2818125 C12.0371875,28.3614375 12.5125,28.412625 13,28.412625 C13.4875,28.412625 13.962,28.36225 14.42675,28.2818125 L15.2221875,31.2506875 C14.5023125,31.392875 13.7605,31.470875 13,31.470875 C12.2395,31.470875 11.496875,31.3920625 10.777,31.2506875 L10.777,31.2506875 Z" fill="#000000"></path>
                    </g>
                </g>
            </g>
        </g>
    </g>
</svg>