<?xml version="1.0" encoding="UTF-8"?>
<svg width="40px" height="40px" viewBox="0 0 40 40" version="1.1" xmlns="http://www.w3.org/2000/svg" xmlns:xlink="http://www.w3.org/1999/xlink">
    <!-- Generator: Sketch 43 (38999) - http://www.bohemiancoding.com/sketch -->
    <title>weibo</title>
    <desc>Created with Sketch.</desc>
    <defs></defs>
    <g id="shengbixing.com" stroke="none" stroke-width="1" fill="none" fill-rule="evenodd">
        <g transform="translate(-498.000000, -1176.000000)" id="social-media">
            <g transform="translate(128.000000, 1140.000000)">
                <g id="social_icons" transform="translate(10.000000, 36.000000)">
                    <g id="weibo" transform="translate(360.000000, 0.000000)">
                        <rect id="bg" fill-opacity="0.01" fill="#FFFFFF" x="0" y="0" width="40" height="40"></rect>
                        <path d="M19.5713888,21.3224129 C20.6032121,21.5254579 23.8444442,23.0054933 22.0608331,26.745908 C20.276504,30.479248 14.3936031,32.2960411 10.0336649,31.9606984 C5.88985662,31.6387978 0.56271863,30.2825702 0.0127000696,25.3422798 C0.0127000696,25.3422798 -0.278106088,23.1052472 1.92340423,20.2088489 C1.92340423,20.2088489 5.08996018,15.8529319 8.77781308,14.6091927 C12.4692562,13.3718208 12.9000801,15.4659436 12.9000801,16.7033155 C12.7040552,17.7539143 12.3364188,18.3715391 13.7222358,17.9463472 C13.7222358,17.9463472 17.3504914,16.2880283 18.8440144,17.7595741 C20.0488853,18.9467154 19.0429114,20.5816876 19.0429114,20.5816876 C19.0429114,20.5816876 18.5431557,21.1257351 19.5713888,21.3224129 Z M10.3560648,30.5669748 C14.6872814,30.3731269 18.1920342,27.7017053 18.1920342,24.8569526 C18.1920342,22.0143224 14.6872814,20.2562496 10.3560648,20.4529274 C6.02915636,20.6488977 2.53086599,22.9340385 2.53086599,25.783036 C2.53086599,28.6284962 6.02915636,30.7664824 10.3560648,30.5669748 Z M9.49298082,22.3291483 C13.852201,21.8303791 14.6305563,25.932313 13.3050546,27.6182234 C11.979553,29.3041338 9.35727128,30.126926 6.81110181,28.7678686 C5.59905046,28.1205299 5.64356894,26.8477843 5.64356894,26.8477843 C5.64356894,26.8477843 5.14022297,22.8314548 9.49298082,22.3291483 Z M8.39581586,27.9670081 C9.20504682,27.8757439 9.86420745,27.2595341 9.86420745,26.5923862 C9.86420745,25.9231159 9.25602766,25.3932179 8.32257579,25.4809446 C7.50975463,25.5644266 6.92814231,26.2627033 6.92814231,26.9291438 C6.92814231,27.5998291 7.5829947,28.0611021 8.39581586,27.9670081 Z M10.9613724,25.8141649 C11.2299193,25.6040451 11.3340351,25.239696 11.188273,24.9970325 C11.043229,24.7600287 10.7079043,24.6921112 10.3855044,24.9277 C10.1061869,25.1279152 10.0494617,25.5078287 10.2016862,25.7455399 C10.3467303,25.987496 10.6856451,26.0165024 10.9613724,25.8141649 Z M25.8707528,19.0712308 C25.8700348,19.0733532 25.8700348,19.0761831 25.8700348,19.0783055 L25.8693167,19.0783055 C25.7501221,19.5353337 25.3315049,19.8756287 24.829595,19.8756287 C24.2343399,19.8756287 23.7525351,19.4002062 23.7525351,18.8144178 C23.7525351,18.7726768 23.7604336,18.7337657 23.7647418,18.6934397 L23.7518171,18.6913173 C23.8142866,18.3588045 23.8458803,18.0170946 23.8458803,17.6753847 C23.8458803,14.6134375 21.3183799,12.1224218 18.2107032,12.1224218 C17.6147301,12.1224218 17.1336434,11.6469993 17.1336434,11.0612109 C17.1336434,10.4754225 17.6147301,10 18.2107032,10 C22.5060179,10 26,13.4432756 26,17.6753847 C26,18.0602505 25.96338,18.4451164 25.9052187,18.8243224 C25.9045007,18.9106342 25.891576,18.9919937 25.8707528,19.0712308 Z M22.4988375,18.0744 C22.4988375,18.0835972 22.5045818,18.0906719 22.5045818,18.1005766 C22.5045818,18.1182634 22.4945292,18.1338278 22.4938112,18.1508072 C22.490939,18.1734464 22.4923751,18.196793 22.4895029,18.2187247 L22.4808865,18.2173098 C22.4198531,18.6474539 22.0608331,18.984919 21.6070319,18.984919 C21.1115844,18.984919 20.709482,18.5887336 20.709482,18.1005766 C20.709482,18.0637879 20.725997,18.0326591 20.7303052,17.9972854 L20.709482,17.9951629 C20.7231248,17.8904568 20.7295872,17.7843357 20.7295872,17.6753847 C20.7295872,16.3071301 19.5993924,15.1935662 18.2107032,15.1935662 C17.7145376,15.1935662 17.3124353,14.7973808 17.3124353,14.3092237 C17.3124353,13.8203592 17.7145376,13.4248813 18.2107032,13.4248813 C20.5895694,13.4248813 22.5246869,15.3315236 22.5246869,17.6753847 C22.5246869,17.8112197 22.5117622,17.9421024 22.4988375,18.0744 Z" fill="#000000"></path>
                    </g>
                </g>
            </g>
        </g>
    </g>
</svg>