<?xml version="1.0" encoding="UTF-8"?>
<svg width="40px" height="40px" viewBox="0 0 40 40" version="1.1" xmlns="http://www.w3.org/2000/svg" xmlns:xlink="http://www.w3.org/1999/xlink">
    <!-- Generator: Sketch 43 (38999) - http://www.bohemiancoding.com/sketch -->
    <title>youtube</title>
    <desc>Created with Sketch.</desc>
    <defs></defs>
    <g id="shengbixing.com" stroke="none" stroke-width="1" fill="none" fill-rule="evenodd">
        <g transform="translate(-438.000000, -1176.000000)" id="social-media">
            <g transform="translate(128.000000, 1140.000000)">
                <g id="social_icons" transform="translate(10.000000, 36.000000)">
                    <g id="youtube" transform="translate(300.000000, 0.000000)">
                        <rect id="bg" fill-opacity="0.01" fill="#FFFFFF" x="0" y="0" width="40" height="40"></rect>
                        <path d="M23.76,15.6713615 C23.76,15.6713615 23.52,13.9953052 22.8,13.2769953 C21.92,12.3192488 20.88,12.3192488 20.4,12.2394366 C17.04,12 12,12 12,12 L12,12 C12,12 6.96,12 3.6,12.2394366 C3.12,12.3192488 2.08,12.3192488 1.2,13.2769953 C0.48,13.9953052 0.24,15.6713615 0.24,15.6713615 C0.24,15.6713615 0,17.5868545 0,19.5821596 L0,21.4178404 C0,23.3333333 0.24,25.3286385 0.24,25.3286385 C0.24,25.3286385 0.48,27.0046948 1.2,27.7230047 C2.08,28.6807512 3.28,28.6807512 3.84,28.7605634 C5.76,28.9201878 12,29 12,29 C12,29 17.04,29 20.4,28.7605634 C20.88,28.6807512 21.92,28.6807512 22.8,27.7230047 C23.52,27.0046948 23.76,25.3286385 23.76,25.3286385 C23.76,25.3286385 24,23.4131455 24,21.4178404 L24,19.5821596 C24,17.5868545 23.76,15.6713615 23.76,15.6713615 L23.76,15.6713615 Z M9.52,23.57277 L9.52,16.8685446 L16,20.2206573 L9.52,23.57277 L9.52,23.57277 Z" fill="#000000"></path>
                    </g>
                </g>
            </g>
        </g>
    </g>
</svg>