<?xml version="1.0" encoding="UTF-8"?>
<svg width="40px" height="40px" viewBox="0 0 40 40" version="1.1" xmlns="http://www.w3.org/2000/svg" xmlns:xlink="http://www.w3.org/1999/xlink">
    <!-- Generator: Sketch 43 (38999) - http://www.bohemiancoding.com/sketch -->
    <title>zhihu</title>
    <desc>Created with Sketch.</desc>
    <defs></defs>
    <g id="shengbixing.com" stroke="none" stroke-width="1" fill="none" fill-rule="evenodd">
        <g transform="translate(-798.000000, -1176.000000)" id="social-media">
            <g transform="translate(128.000000, 1140.000000)">
                <g id="social_icons" transform="translate(10.000000, 36.000000)">
                    <g id="zhihu" transform="translate(660.000000, 0.000000)">
                        <rect id="bg" fill-opacity="0.01" fill="#FFFFFF" x="0" y="0" width="40" height="40"></rect>
                        <path d="M21.1325803,29.054704 L17.0700803,32.994098 L17.0700803,29.054704 L14.6325803,29.054704 L14.6325803,10.9334919 L25.1869553,11.0666434 L25.1950803,10.9334919 L25.1950803,29.054704 L21.1325803,29.054704 L21.1325803,29.054704 Z M22.7575803,13.2971283 L17.0700803,13.2971283 L17.0700803,27.4521586 L17.8825803,27.4789464 L17.8825803,29.054704 L21.0131428,27.4379768 L22.7575803,27.4789464 L22.7575803,13.2971283 L22.7575803,13.2971283 Z M8.94508027,21.1759161 C8.09845527,21.1837949 8.07083027,21.0033707 8.03264277,21.8889464 C8.00826777,22.4522798 7.82870527,23.0085222 7.71901777,23.5679161 L6.99914277,25.8125828 C6.41576777,27.2882798 5.75601777,28.7222192 4.67945527,29.9497343 C3.61183027,31.1654313 2.15826777,31.3348252 0.655142774,31.3860374 C0.421142774,31.3939161 0.0969552742,31.4301586 0.0132677742,31.1323404 C-0.0647322258,30.8526434 0.218830274,30.7068858 0.403267774,30.562704 C1.98683027,29.3210071 3.10158027,28.4165222 4.07008027,26.6910677 C4.85495527,25.2933707 5.43833027,24.3242798 5.69508027,22.7516737 C5.80476777,22.0780374 5.54395527,21.1577949 4.88258027,21.1759161 C3.65408027,21.2097949 1.23689277,21.164098 0.00758027418,21.1759161 C-0.0322322258,21.1719768 0.116455274,20.7945828 0.244017774,20.4006434 C0.507267774,19.5418555 1.12314277,18.8406434 1.81295527,18.8532495 C2.88464277,18.8721586 2.99920527,18.7791889 4.07008027,18.8122798 C4.74851777,18.8335525 5.70239277,18.7082798 5.69508027,18.024401 C5.67883027,16.4801586 5.65039277,14.8405828 5.69508027,13.2971283 C5.70808027,12.8543404 6.01520527,12.6723404 5.58295527,12.6376737 C4.17814277,12.5265828 4.04001777,12.5888252 3.37539277,13.8352495 C2.83264277,14.8508252 1.71301777,15.4267646 0.579580274,15.6993707 C-0.0322322258,15.846704 0.0303302742,15.8262192 0.108330274,15.6473707 C1.00533027,13.604401 1.97951777,10.9988858 2.82939277,8.9464616 C3.17876777,8.1034313 4.65751777,7.48809796 5.51308027,7.01458281 C5.51308027,7.01458281 5.71295527,6.87434039 5.51714277,7.46367372 C5.30670527,8.09870402 5.02720527,9.25294645 4.79401777,9.87931008 C4.54945527,10.5340374 4.67133027,10.8728252 5.36114277,10.8673101 C7.41026777,10.8507646 9.57233027,10.8673101 11.6222678,10.8673101 C12.1057053,10.8673101 12.5168303,10.7885222 12.8198928,11.2848858 C13.8054553,12.8968858 13.5820178,12.6242798 12.6232678,12.6392495 C11.8034553,12.6518555 10.5765803,12.5360374 9.75758027,12.5092495 C9.13764277,12.4887646 8.26176777,12.8165222 8.23333027,13.4523404 C8.15695527,15.1762192 8.10820527,16.4478555 8.13258027,18.024401 C8.14151777,18.5845828 9.34808027,18.8130677 9.75758027,18.8122798 C10.8292678,18.810704 10.9673928,18.8351283 12.0390803,18.8532495 C12.9141428,18.8674313 13.5145803,19.5552495 13.8200803,20.3880374 C13.8420178,20.6511889 14.0386428,21.1042192 13.8200803,21.1759161 C12.7012678,21.1648858 10.0484553,21.1656737 8.94508027,21.1759161 L8.94508027,21.1759161 Z M12.1950803,27.4789464 C12.5143928,27.9382798 12.5558303,28.7576737 12.1950803,29.8425828 C12.1235803,30.0584616 11.6888928,29.9505222 11.2184553,29.4305222 C10.0817678,28.1730677 9.03933027,26.8399768 7.94001777,25.5525828 C7.63289277,25.1925222 7.44845527,24.9884616 7.30789277,24.946704 L8.94508027,23.5395525 C9.69420527,24.3975525 11.4475803,26.6201586 12.1950803,27.4789464 L12.1950803,27.4789464 Z" fill="#000000"></path>
                    </g>
                </g>
            </g>
        </g>
    </g>
</svg>