<?xml version="1.0" encoding="UTF-8"?>
<svg width="40px" height="40px" viewBox="0 0 40 40" version="1.1" xmlns="http://www.w3.org/2000/svg" xmlns:xlink="http://www.w3.org/1999/xlink">
    <!-- Generator: Sketch 43 (38999) - http://www.bohemiancoding.com/sketch -->
    <title>zi.com</title>
    <desc>Created with Sketch.</desc>
    <defs></defs>
    <g id="shengbixing.com" stroke="none" stroke-width="1" fill="none" fill-rule="evenodd">
        <g transform="translate(-258.000000, -1176.000000)" id="social-media">
            <g transform="translate(128.000000, 1140.000000)">
                <g id="social_icons" transform="translate(10.000000, 36.000000)">
                    <g id="zi.com" transform="translate(120.000000, 0.000000)">
                        <rect id="bg" fill-opacity="0.01" fill="#FFFFFF" x="0" y="0" width="40" height="40"></rect>
                        <path d="M11.2432175,22.3802973 C11.1095245,21.3323831 10.656745,20.4021692 9.69649876,19.7008371 L9.87580942,19.4855731 C10.7676368,19.9152131 11.6593734,20.3448532 12.6862518,20.8395875 C13.5656138,19.3700095 14.4540251,17.8853095 15.3728006,16.3498461 L6.40223342,16.3498461 L6.40223342,16.0224506 L15.5687042,16.0224506 C15.9111458,15.4501591 16.2579732,14.8705354 16.6102742,14.2817602 C17.6655079,15.216436 18.5561539,16.0052046 19.3168382,16.6788816 C17.1254857,18.0868896 14.9454934,19.4876156 12.6370845,20.9707529 C13.9858678,22.209054 14.0296731,23.6747855 13.9941381,25.1859853 C13.9511508,27.0153744 14.0117692,28.8470725 13.9745984,30.6766393 C13.934792,32.6311551 12.5671052,33.9815285 10.6364938,34 C10.137732,32.0309201 8.34689751,31.9372305 6.75927567,31.3897458 C7.2636721,31.3897458 7.76806853,31.3894794 8.27246495,31.3898346 C8.78331402,31.3902787 9.29425397,31.3940085 9.80510304,31.3916108 C11.1276214,31.3854832 11.2997523,31.2312284 11.3019335,29.9830699 C11.3058415,27.65868 11.3200191,25.3338461 11.2864835,23.0099002 C11.2848649,22.8977301 11.2802575,22.7865758 11.272456,22.6765585 L0,22.6765585 L0,22.3802973 L11.2432175,22.3802973 L11.2432175,22.3802973 Z M11.3886806,11.1417431 L4.23970075,11.1417431 C4.3874908,12.203682 4.20358153,13.296252 3.67421444,14.4136183 C3.48036262,14.8227443 3.14855156,15.1943057 2.8065617,15.5060123 C2.23827506,16.0239248 1.54338945,16.2794176 0.892127326,15.6899281 C0.21532729,15.0773491 0.528689251,14.4169929 1.01227365,13.8323876 C1.22493809,13.5752075 1.47250131,13.3376533 1.73642333,13.1303817 C3.33040693,11.8789374 3.8555245,10.3475789 3.09629428,8.42450011 C3.67378262,9.23120604 4.04481705,10.0609987 4.20225574,10.9108493 L11.3886806,10.9108493 L11.3886806,6 C12.4957172,6.35397792 13.5517688,6.69170447 14.4993979,6.99470816 C14.341899,7.73694285 14.1459569,8.39046104 14.0777043,9.05650079 C14.0076341,9.74030159 14.0621635,10.4363575 14.0621635,11.1781482 L11.3886806,11.1781482 L11.3886806,11.1417431 L11.3886806,11.1417431 Z M22.2445368,9.20115574 C23.4772635,10.2790745 24.4607911,11.1389762 25.3582532,11.9237486 C23.429823,13.0825689 21.5432895,14.2162574 19.4710835,15.4613965 C19.9030468,14.5865755 20.2897508,13.874357 20.6118374,13.1351417 C21.1502238,11.8995936 21.6474405,10.6467284 22.2445368,9.20115574 Z M26,23.5343665 L21.5328653,23.5343665 C22.091064,22.7361845 22.5761934,22.0427039 23.1472974,21.226228 C24.0685706,21.9716597 24.9332243,22.671179 26,23.5343665 Z M21.8214528,29.7708519 C21.8214528,30.6488699 21.0930316,31.3605555 20.1945698,31.3605555 C19.296108,31.3605555 18.5676868,30.6488699 18.5676868,29.7708519 C18.5676868,28.8928339 19.296108,28.1811482 20.1945698,28.1811482 C21.0930316,28.1811482 21.8214528,28.8928339 21.8214528,29.7708519 Z" fill="#231815"></path>
                    </g>
                </g>
            </g>
        </g>
    </g>
</svg>